<?xml version="1.0" encoding="utf-8" standalone="no"?>
<!DOCTYPE svg PUBLIC "-//W3C//DTD SVG 1.1//EN"
  "http://www.w3.org/Graphics/SVG/1.1/DTD/svg11.dtd">
<!-- Created with matplotlib (https://matplotlib.org/) -->
<svg height="345.6pt" version="1.1" viewBox="0 0 460.8 345.6" width="460.8pt" xmlns="http://www.w3.org/2000/svg" xmlns:xlink="http://www.w3.org/1999/xlink">
 <defs>
  <style type="text/css">
*{stroke-linecap:butt;stroke-linejoin:round;}
  </style>
 </defs>
 <g id="figure_1">
  <g id="patch_1">
   <path d="M 0 345.6 
L 460.8 345.6 
L 460.8 0 
L 0 0 
z
" style="fill:#ffffff;"/>
  </g>
  <g id="axes_1">
   <g id="patch_2">
    <path d="M 120.930124 307.584 
L 351.389876 307.584 
L 351.389876 41.472 
L 120.930124 41.472 
z
" style="fill:#ffffff;"/>
   </g>
   <g id="matplotlib.axis_1">
    <g id="xtick_1">
     <g id="line2d_1">
      <defs>
       <path d="M 0 0 
L 0 3.5 
" id="m669db03707" style="stroke:#000000;stroke-width:0.8;"/>
      </defs>
      <g>
       <use style="stroke:#000000;stroke-width:0.8;" x="131.405567" xlink:href="#m669db03707" y="307.584"/>
      </g>
     </g>
     <g id="text_1">
      <!-- 0.0 -->
      <defs>
       <path d="M 31.78125 66.40625 
Q 24.171875 66.40625 20.328125 58.90625 
Q 16.5 51.421875 16.5 36.375 
Q 16.5 21.390625 20.328125 13.890625 
Q 24.171875 6.390625 31.78125 6.390625 
Q 39.453125 6.390625 43.28125 13.890625 
Q 47.125 21.390625 47.125 36.375 
Q 47.125 51.421875 43.28125 58.90625 
Q 39.453125 66.40625 31.78125 66.40625 
z
M 31.78125 74.21875 
Q 44.046875 74.21875 50.515625 64.515625 
Q 56.984375 54.828125 56.984375 36.375 
Q 56.984375 17.96875 50.515625 8.265625 
Q 44.046875 -1.421875 31.78125 -1.421875 
Q 19.53125 -1.421875 13.0625 8.265625 
Q 6.59375 17.96875 6.59375 36.375 
Q 6.59375 54.828125 13.0625 64.515625 
Q 19.53125 74.21875 31.78125 74.21875 
z
" id="DejaVuSans-48"/>
       <path d="M 10.6875 12.40625 
L 21 12.40625 
L 21 0 
L 10.6875 0 
z
" id="DejaVuSans-46"/>
      </defs>
      <g transform="translate(123.454005 322.182437)scale(0.1 -0.1)">
       <use xlink:href="#DejaVuSans-48"/>
       <use x="63.623047" xlink:href="#DejaVuSans-46"/>
       <use x="95.410156" xlink:href="#DejaVuSans-48"/>
      </g>
     </g>
    </g>
    <g id="xtick_2">
     <g id="line2d_2">
      <g>
       <use style="stroke:#000000;stroke-width:0.8;" x="173.30734" xlink:href="#m669db03707" y="307.584"/>
      </g>
     </g>
     <g id="text_2">
      <!-- 0.2 -->
      <defs>
       <path d="M 19.1875 8.296875 
L 53.609375 8.296875 
L 53.609375 0 
L 7.328125 0 
L 7.328125 8.296875 
Q 12.9375 14.109375 22.625 23.890625 
Q 32.328125 33.6875 34.8125 36.53125 
Q 39.546875 41.84375 41.421875 45.53125 
Q 43.3125 49.21875 43.3125 52.78125 
Q 43.3125 58.59375 39.234375 62.25 
Q 35.15625 65.921875 28.609375 65.921875 
Q 23.96875 65.921875 18.8125 64.3125 
Q 13.671875 62.703125 7.8125 59.421875 
L 7.8125 69.390625 
Q 13.765625 71.78125 18.9375 73 
Q 24.125 74.21875 28.421875 74.21875 
Q 39.75 74.21875 46.484375 68.546875 
Q 53.21875 62.890625 53.21875 53.421875 
Q 53.21875 48.921875 51.53125 44.890625 
Q 49.859375 40.875 45.40625 35.40625 
Q 44.1875 33.984375 37.640625 27.21875 
Q 31.109375 20.453125 19.1875 8.296875 
z
" id="DejaVuSans-50"/>
      </defs>
      <g transform="translate(165.355778 322.182437)scale(0.1 -0.1)">
       <use xlink:href="#DejaVuSans-48"/>
       <use x="63.623047" xlink:href="#DejaVuSans-46"/>
       <use x="95.410156" xlink:href="#DejaVuSans-50"/>
      </g>
     </g>
    </g>
    <g id="xtick_3">
     <g id="line2d_3">
      <g>
       <use style="stroke:#000000;stroke-width:0.8;" x="215.209113" xlink:href="#m669db03707" y="307.584"/>
      </g>
     </g>
     <g id="text_3">
      <!-- 0.4 -->
      <defs>
       <path d="M 37.796875 64.3125 
L 12.890625 25.390625 
L 37.796875 25.390625 
z
M 35.203125 72.90625 
L 47.609375 72.90625 
L 47.609375 25.390625 
L 58.015625 25.390625 
L 58.015625 17.1875 
L 47.609375 17.1875 
L 47.609375 0 
L 37.796875 0 
L 37.796875 17.1875 
L 4.890625 17.1875 
L 4.890625 26.703125 
z
" id="DejaVuSans-52"/>
      </defs>
      <g transform="translate(207.257551 322.182437)scale(0.1 -0.1)">
       <use xlink:href="#DejaVuSans-48"/>
       <use x="63.623047" xlink:href="#DejaVuSans-46"/>
       <use x="95.410156" xlink:href="#DejaVuSans-52"/>
      </g>
     </g>
    </g>
    <g id="xtick_4">
     <g id="line2d_4">
      <g>
       <use style="stroke:#000000;stroke-width:0.8;" x="257.110887" xlink:href="#m669db03707" y="307.584"/>
      </g>
     </g>
     <g id="text_4">
      <!-- 0.6 -->
      <defs>
       <path d="M 33.015625 40.375 
Q 26.375 40.375 22.484375 35.828125 
Q 18.609375 31.296875 18.609375 23.390625 
Q 18.609375 15.53125 22.484375 10.953125 
Q 26.375 6.390625 33.015625 6.390625 
Q 39.65625 6.390625 43.53125 10.953125 
Q 47.40625 15.53125 47.40625 23.390625 
Q 47.40625 31.296875 43.53125 35.828125 
Q 39.65625 40.375 33.015625 40.375 
z
M 52.59375 71.296875 
L 52.59375 62.3125 
Q 48.875 64.0625 45.09375 64.984375 
Q 41.3125 65.921875 37.59375 65.921875 
Q 27.828125 65.921875 22.671875 59.328125 
Q 17.53125 52.734375 16.796875 39.40625 
Q 19.671875 43.65625 24.015625 45.921875 
Q 28.375 48.1875 33.59375 48.1875 
Q 44.578125 48.1875 50.953125 41.515625 
Q 57.328125 34.859375 57.328125 23.390625 
Q 57.328125 12.15625 50.6875 5.359375 
Q 44.046875 -1.421875 33.015625 -1.421875 
Q 20.359375 -1.421875 13.671875 8.265625 
Q 6.984375 17.96875 6.984375 36.375 
Q 6.984375 53.65625 15.1875 63.9375 
Q 23.390625 74.21875 37.203125 74.21875 
Q 40.921875 74.21875 44.703125 73.484375 
Q 48.484375 72.75 52.59375 71.296875 
z
" id="DejaVuSans-54"/>
      </defs>
      <g transform="translate(249.159324 322.182437)scale(0.1 -0.1)">
       <use xlink:href="#DejaVuSans-48"/>
       <use x="63.623047" xlink:href="#DejaVuSans-46"/>
       <use x="95.410156" xlink:href="#DejaVuSans-54"/>
      </g>
     </g>
    </g>
    <g id="xtick_5">
     <g id="line2d_5">
      <g>
       <use style="stroke:#000000;stroke-width:0.8;" x="299.01266" xlink:href="#m669db03707" y="307.584"/>
      </g>
     </g>
     <g id="text_5">
      <!-- 0.8 -->
      <defs>
       <path d="M 31.78125 34.625 
Q 24.75 34.625 20.71875 30.859375 
Q 16.703125 27.09375 16.703125 20.515625 
Q 16.703125 13.921875 20.71875 10.15625 
Q 24.75 6.390625 31.78125 6.390625 
Q 38.8125 6.390625 42.859375 10.171875 
Q 46.921875 13.96875 46.921875 20.515625 
Q 46.921875 27.09375 42.890625 30.859375 
Q 38.875 34.625 31.78125 34.625 
z
M 21.921875 38.8125 
Q 15.578125 40.375 12.03125 44.71875 
Q 8.5 49.078125 8.5 55.328125 
Q 8.5 64.0625 14.71875 69.140625 
Q 20.953125 74.21875 31.78125 74.21875 
Q 42.671875 74.21875 48.875 69.140625 
Q 55.078125 64.0625 55.078125 55.328125 
Q 55.078125 49.078125 51.53125 44.71875 
Q 48 40.375 41.703125 38.8125 
Q 48.828125 37.15625 52.796875 32.3125 
Q 56.78125 27.484375 56.78125 20.515625 
Q 56.78125 9.90625 50.3125 4.234375 
Q 43.84375 -1.421875 31.78125 -1.421875 
Q 19.734375 -1.421875 13.25 4.234375 
Q 6.78125 9.90625 6.78125 20.515625 
Q 6.78125 27.484375 10.78125 32.3125 
Q 14.796875 37.15625 21.921875 38.8125 
z
M 18.3125 54.390625 
Q 18.3125 48.734375 21.84375 45.5625 
Q 25.390625 42.390625 31.78125 42.390625 
Q 38.140625 42.390625 41.71875 45.5625 
Q 45.3125 48.734375 45.3125 54.390625 
Q 45.3125 60.0625 41.71875 63.234375 
Q 38.140625 66.40625 31.78125 66.40625 
Q 25.390625 66.40625 21.84375 63.234375 
Q 18.3125 60.0625 18.3125 54.390625 
z
" id="DejaVuSans-56"/>
      </defs>
      <g transform="translate(291.061097 322.182437)scale(0.1 -0.1)">
       <use xlink:href="#DejaVuSans-48"/>
       <use x="63.623047" xlink:href="#DejaVuSans-46"/>
       <use x="95.410156" xlink:href="#DejaVuSans-56"/>
      </g>
     </g>
    </g>
    <g id="xtick_6">
     <g id="line2d_6">
      <g>
       <use style="stroke:#000000;stroke-width:0.8;" x="340.914433" xlink:href="#m669db03707" y="307.584"/>
      </g>
     </g>
     <g id="text_6">
      <!-- 1.0 -->
      <defs>
       <path d="M 12.40625 8.296875 
L 28.515625 8.296875 
L 28.515625 63.921875 
L 10.984375 60.40625 
L 10.984375 69.390625 
L 28.421875 72.90625 
L 38.28125 72.90625 
L 38.28125 8.296875 
L 54.390625 8.296875 
L 54.390625 0 
L 12.40625 0 
z
" id="DejaVuSans-49"/>
      </defs>
      <g transform="translate(332.96287 322.182437)scale(0.1 -0.1)">
       <use xlink:href="#DejaVuSans-49"/>
       <use x="63.623047" xlink:href="#DejaVuSans-46"/>
       <use x="95.410156" xlink:href="#DejaVuSans-48"/>
      </g>
     </g>
    </g>
   </g>
   <g id="matplotlib.axis_2">
    <g id="ytick_1">
     <g id="line2d_7">
      <defs>
       <path d="M 0 0 
L -3.5 0 
" id="m577b639dd2" style="stroke:#000000;stroke-width:0.8;"/>
      </defs>
      <g>
       <use style="stroke:#000000;stroke-width:0.8;" x="120.930124" xlink:href="#m577b639dd2" y="276.909773"/>
      </g>
     </g>
     <g id="text_7">
      <!-- −0.2 -->
      <defs>
       <path d="M 10.59375 35.5 
L 73.1875 35.5 
L 73.1875 27.203125 
L 10.59375 27.203125 
z
" id="DejaVuSans-8722"/>
      </defs>
      <g transform="translate(89.647311 280.708992)scale(0.1 -0.1)">
       <use xlink:href="#DejaVuSans-8722"/>
       <use x="83.789062" xlink:href="#DejaVuSans-48"/>
       <use x="147.412109" xlink:href="#DejaVuSans-46"/>
       <use x="179.199219" xlink:href="#DejaVuSans-50"/>
      </g>
     </g>
    </g>
    <g id="ytick_2">
     <g id="line2d_8">
      <g>
       <use style="stroke:#000000;stroke-width:0.8;" x="120.930124" xlink:href="#m577b639dd2" y="235.008"/>
      </g>
     </g>
     <g id="text_8">
      <!-- 0.0 -->
      <g transform="translate(98.026999 238.807219)scale(0.1 -0.1)">
       <use xlink:href="#DejaVuSans-48"/>
       <use x="63.623047" xlink:href="#DejaVuSans-46"/>
       <use x="95.410156" xlink:href="#DejaVuSans-48"/>
      </g>
     </g>
    </g>
    <g id="ytick_3">
     <g id="line2d_9">
      <g>
       <use style="stroke:#000000;stroke-width:0.8;" x="120.930124" xlink:href="#m577b639dd2" y="193.106227"/>
      </g>
     </g>
     <g id="text_9">
      <!-- 0.2 -->
      <g transform="translate(98.026999 196.905446)scale(0.1 -0.1)">
       <use xlink:href="#DejaVuSans-48"/>
       <use x="63.623047" xlink:href="#DejaVuSans-46"/>
       <use x="95.410156" xlink:href="#DejaVuSans-50"/>
      </g>
     </g>
    </g>
    <g id="ytick_4">
     <g id="line2d_10">
      <g>
       <use style="stroke:#000000;stroke-width:0.8;" x="120.930124" xlink:href="#m577b639dd2" y="151.204454"/>
      </g>
     </g>
     <g id="text_10">
      <!-- 0.4 -->
      <g transform="translate(98.026999 155.003672)scale(0.1 -0.1)">
       <use xlink:href="#DejaVuSans-48"/>
       <use x="63.623047" xlink:href="#DejaVuSans-46"/>
       <use x="95.410156" xlink:href="#DejaVuSans-52"/>
      </g>
     </g>
    </g>
    <g id="ytick_5">
     <g id="line2d_11">
      <g>
       <use style="stroke:#000000;stroke-width:0.8;" x="120.930124" xlink:href="#m577b639dd2" y="109.302681"/>
      </g>
     </g>
     <g id="text_11">
      <!-- 0.6 -->
      <g transform="translate(98.026999 113.101899)scale(0.1 -0.1)">
       <use xlink:href="#DejaVuSans-48"/>
       <use x="63.623047" xlink:href="#DejaVuSans-46"/>
       <use x="95.410156" xlink:href="#DejaVuSans-54"/>
      </g>
     </g>
    </g>
    <g id="ytick_6">
     <g id="line2d_12">
      <g>
       <use style="stroke:#000000;stroke-width:0.8;" x="120.930124" xlink:href="#m577b639dd2" y="67.400907"/>
      </g>
     </g>
     <g id="text_12">
      <!-- 0.8 -->
      <g transform="translate(98.026999 71.200126)scale(0.1 -0.1)">
       <use xlink:href="#DejaVuSans-48"/>
       <use x="63.623047" xlink:href="#DejaVuSans-46"/>
       <use x="95.410156" xlink:href="#DejaVuSans-56"/>
      </g>
     </g>
    </g>
   </g>
   <g id="line2d_13">
    <path clip-path="url(#p22d9ff12e3)" d="M 131.405567 235.008 
L 132.267744 235.008 
L 132.698832 235.754667 
L 133.12992 235.008 
L 133.992096 235.008 
L 134.423185 235.754667 
L 133.992096 236.501333 
L 134.854273 236.501333 
L 135.285361 237.248 
L 135.716449 236.501333 
L 136.578626 236.501333 
L 136.147537 235.754667 
L 136.578626 235.008 
L 137.440802 235.008 
L 137.87189 235.754667 
L 138.302978 235.008 
L 139.165155 235.008 
L 139.596243 235.754667 
L 139.165155 236.501333 
L 140.027331 236.501333 
L 140.458419 237.248 
L 140.027331 237.994667 
L 139.165155 237.994667 
L 139.596243 238.741333 
L 139.165155 239.488 
L 140.027331 239.488 
L 140.458419 240.234667 
L 140.889508 239.488 
L 141.751684 239.488 
L 142.182772 240.234667 
L 141.751684 240.981333 
L 142.61386 240.981333 
L 143.044949 241.728 
L 143.476037 240.981333 
L 144.338213 240.981333 
L 143.907125 240.234667 
L 144.338213 239.488 
L 145.20039 239.488 
L 145.631478 240.234667 
L 146.062566 239.488 
L 146.924742 239.488 
L 146.493654 238.741333 
L 146.924742 237.994667 
L 146.062566 237.994667 
L 145.631478 237.248 
L 146.062566 236.501333 
L 146.924742 236.501333 
L 146.493654 235.754667 
L 146.924742 235.008 
L 147.786919 235.008 
L 148.218007 235.754667 
L 148.649095 235.008 
L 149.511272 235.008 
L 149.94236 235.754667 
L 149.511272 236.501333 
L 150.373448 236.501333 
L 150.804536 237.248 
L 151.235624 236.501333 
L 152.097801 236.501333 
L 151.666713 235.754667 
L 152.097801 235.008 
L 152.959977 235.008 
L 153.391065 235.754667 
L 153.822154 235.008 
L 154.68433 235.008 
L 155.115418 235.754667 
L 154.68433 236.501333 
L 155.546506 236.501333 
L 155.977595 237.248 
L 155.546506 237.994667 
L 154.68433 237.994667 
L 155.115418 238.741333 
L 154.68433 239.488 
L 155.546506 239.488 
L 155.977595 240.234667 
L 156.408683 239.488 
L 157.270859 239.488 
L 157.701947 240.234667 
L 157.270859 240.981333 
L 158.133036 240.981333 
L 158.564124 241.728 
L 158.133036 242.474667 
L 157.270859 242.474667 
L 157.701947 243.221333 
L 157.270859 243.968 
L 156.408683 243.968 
L 155.977595 243.221333 
L 155.546506 243.968 
L 154.68433 243.968 
L 155.115418 244.714667 
L 154.68433 245.461333 
L 155.546506 245.461333 
L 155.977595 246.208 
L 155.546506 246.954667 
L 154.68433 246.954667 
L 155.115418 247.701333 
L 154.68433 248.448 
L 155.546506 248.448 
L 155.977595 249.194667 
L 156.408683 248.448 
L 157.270859 248.448 
L 157.701947 249.194667 
L 157.270859 249.941333 
L 158.133036 249.941333 
L 158.564124 250.688 
L 158.995212 249.941333 
L 159.857388 249.941333 
L 159.4263 249.194667 
L 159.857388 248.448 
L 160.719565 248.448 
L 161.150653 249.194667 
L 161.581741 248.448 
L 162.443918 248.448 
L 162.875006 249.194667 
L 162.443918 249.941333 
L 163.306094 249.941333 
L 163.737182 250.688 
L 163.306094 251.434667 
L 162.443918 251.434667 
L 162.875006 252.181333 
L 162.443918 252.928 
L 163.306094 252.928 
L 163.737182 253.674667 
L 164.16827 252.928 
L 165.030447 252.928 
L 165.461535 253.674667 
L 165.030447 254.421333 
L 165.892623 254.421333 
L 166.323711 255.168 
L 166.7548 254.421333 
L 167.616976 254.421333 
L 167.185888 253.674667 
L 167.616976 252.928 
L 168.479152 252.928 
L 168.910241 253.674667 
L 169.341329 252.928 
L 170.203505 252.928 
L 169.772417 252.181333 
L 170.203505 251.434667 
L 169.341329 251.434667 
L 168.910241 250.688 
L 169.341329 249.941333 
L 170.203505 249.941333 
L 169.772417 249.194667 
L 170.203505 248.448 
L 171.065682 248.448 
L 171.49677 249.194667 
L 171.927858 248.448 
L 172.790034 248.448 
L 173.221123 249.194667 
L 172.790034 249.941333 
L 173.652211 249.941333 
L 174.083299 250.688 
L 174.514387 249.941333 
L 175.376564 249.941333 
L 174.945475 249.194667 
L 175.376564 248.448 
L 176.23874 248.448 
L 176.669828 249.194667 
L 177.100916 248.448 
L 177.963093 248.448 
L 177.532005 247.701333 
L 177.963093 246.954667 
L 177.100916 246.954667 
L 176.669828 246.208 
L 177.100916 245.461333 
L 177.963093 245.461333 
L 177.532005 244.714667 
L 177.963093 243.968 
L 177.100916 243.968 
L 176.669828 243.221333 
L 176.23874 243.968 
L 175.376564 243.968 
L 174.945475 243.221333 
L 175.376564 242.474667 
L 174.514387 242.474667 
L 174.083299 241.728 
L 174.514387 240.981333 
L 175.376564 240.981333 
L 174.945475 240.234667 
L 175.376564 239.488 
L 176.23874 239.488 
L 176.669828 240.234667 
L 177.100916 239.488 
L 177.963093 239.488 
L 177.532005 238.741333 
L 177.963093 237.994667 
L 177.100916 237.994667 
L 176.669828 237.248 
L 177.100916 236.501333 
L 177.963093 236.501333 
L 177.532005 235.754667 
L 177.963093 235.008 
L 178.825269 235.008 
L 179.256357 235.754667 
L 179.687446 235.008 
L 180.549622 235.008 
L 180.98071 235.754667 
L 180.549622 236.501333 
L 181.411798 236.501333 
L 181.842887 237.248 
L 182.273975 236.501333 
L 183.136151 236.501333 
L 182.705063 235.754667 
L 183.136151 235.008 
L 183.998328 235.008 
L 184.429416 235.754667 
L 184.860504 235.008 
L 185.72268 235.008 
L 186.153769 235.754667 
L 185.72268 236.501333 
L 186.584857 236.501333 
L 187.015945 237.248 
L 186.584857 237.994667 
L 185.72268 237.994667 
L 186.153769 238.741333 
L 185.72268 239.488 
L 186.584857 239.488 
L 187.015945 240.234667 
L 187.447033 239.488 
L 188.30921 239.488 
L 188.740298 240.234667 
L 188.30921 240.981333 
L 189.171386 240.981333 
L 189.602474 241.728 
L 190.033562 240.981333 
L 190.895739 240.981333 
L 190.464651 240.234667 
L 190.895739 239.488 
L 191.757915 239.488 
L 192.189003 240.234667 
L 192.620092 239.488 
L 193.482268 239.488 
L 193.05118 238.741333 
L 193.482268 237.994667 
L 192.620092 237.994667 
L 192.189003 237.248 
L 192.620092 236.501333 
L 193.482268 236.501333 
L 193.05118 235.754667 
L 193.482268 235.008 
L 194.344445 235.008 
L 194.775533 235.754667 
L 195.206621 235.008 
L 196.068797 235.008 
L 196.499886 235.754667 
L 196.068797 236.501333 
L 196.930974 236.501333 
L 197.362062 237.248 
L 197.79315 236.501333 
L 198.655327 236.501333 
L 198.224238 235.754667 
L 198.655327 235.008 
L 199.517503 235.008 
L 199.948591 235.754667 
L 200.379679 235.008 
L 201.241856 235.008 
L 201.672944 235.754667 
L 201.241856 236.501333 
L 202.104032 236.501333 
L 202.53512 237.248 
L 202.104032 237.994667 
L 201.241856 237.994667 
L 201.672944 238.741333 
L 201.241856 239.488 
L 202.104032 239.488 
L 202.53512 240.234667 
L 202.966209 239.488 
L 203.828385 239.488 
L 204.259473 240.234667 
L 203.828385 240.981333 
L 204.690561 240.981333 
L 205.12165 241.728 
L 204.690561 242.474667 
L 203.828385 242.474667 
L 204.259473 243.221333 
L 203.828385 243.968 
L 202.966209 243.968 
L 202.53512 243.221333 
L 202.104032 243.968 
L 201.241856 243.968 
L 201.672944 244.714667 
L 201.241856 245.461333 
L 202.104032 245.461333 
L 202.53512 246.208 
L 202.104032 246.954667 
L 201.241856 246.954667 
L 201.672944 247.701333 
L 201.241856 248.448 
L 202.104032 248.448 
L 202.53512 249.194667 
L 202.966209 248.448 
L 203.828385 248.448 
L 204.259473 249.194667 
L 203.828385 249.941333 
L 204.690561 249.941333 
L 205.12165 250.688 
L 205.552738 249.941333 
L 206.414914 249.941333 
L 205.983826 249.194667 
L 206.414914 248.448 
L 207.277091 248.448 
L 207.708179 249.194667 
L 208.139267 248.448 
L 209.001443 248.448 
L 209.432532 249.194667 
L 209.001443 249.941333 
L 209.86362 249.941333 
L 210.294708 250.688 
L 209.86362 251.434667 
L 209.001443 251.434667 
L 209.432532 252.181333 
L 209.001443 252.928 
L 209.86362 252.928 
L 210.294708 253.674667 
L 210.725796 252.928 
L 211.587973 252.928 
L 212.019061 253.674667 
L 211.587973 254.421333 
L 212.450149 254.421333 
L 212.881237 255.168 
L 212.450149 255.914667 
L 211.587973 255.914667 
L 212.019061 256.661333 
L 211.587973 257.408 
L 210.725796 257.408 
L 210.294708 256.661333 
L 209.86362 257.408 
L 209.001443 257.408 
L 209.432532 258.154667 
L 209.001443 258.901333 
L 209.86362 258.901333 
L 210.294708 259.648 
L 209.86362 260.394667 
L 209.001443 260.394667 
L 209.432532 261.141333 
L 209.001443 261.888 
L 208.139267 261.888 
L 207.708179 261.141333 
L 207.277091 261.888 
L 206.414914 261.888 
L 205.983826 261.141333 
L 206.414914 260.394667 
L 205.552738 260.394667 
L 205.12165 259.648 
L 204.690561 260.394667 
L 203.828385 260.394667 
L 204.259473 261.141333 
L 203.828385 261.888 
L 202.966209 261.888 
L 202.53512 261.141333 
L 202.104032 261.888 
L 201.241856 261.888 
L 201.672944 262.634667 
L 201.241856 263.381333 
L 202.104032 263.381333 
L 202.53512 264.128 
L 202.104032 264.874667 
L 201.241856 264.874667 
L 201.672944 265.621333 
L 201.241856 266.368 
L 202.104032 266.368 
L 202.53512 267.114667 
L 202.966209 266.368 
L 203.828385 266.368 
L 204.259473 267.114667 
L 203.828385 267.861333 
L 204.690561 267.861333 
L 205.12165 268.608 
L 204.690561 269.354667 
L 203.828385 269.354667 
L 204.259473 270.101333 
L 203.828385 270.848 
L 202.966209 270.848 
L 202.53512 270.101333 
L 202.104032 270.848 
L 201.241856 270.848 
L 201.672944 271.594667 
L 201.241856 272.341333 
L 202.104032 272.341333 
L 202.53512 273.088 
L 202.104032 273.834667 
L 201.241856 273.834667 
L 201.672944 274.581333 
L 201.241856 275.328 
L 202.104032 275.328 
L 202.53512 276.074667 
L 202.966209 275.328 
L 203.828385 275.328 
L 204.259473 276.074667 
L 203.828385 276.821333 
L 204.690561 276.821333 
L 205.12165 277.568 
L 205.552738 276.821333 
L 206.414914 276.821333 
L 205.983826 276.074667 
L 206.414914 275.328 
L 207.277091 275.328 
L 207.708179 276.074667 
L 208.139267 275.328 
L 209.001443 275.328 
L 209.432532 276.074667 
L 209.001443 276.821333 
L 209.86362 276.821333 
L 210.294708 277.568 
L 209.86362 278.314667 
L 209.001443 278.314667 
L 209.432532 279.061333 
L 209.001443 279.808 
L 209.86362 279.808 
L 210.294708 280.554667 
L 210.725796 279.808 
L 211.587973 279.808 
L 212.019061 280.554667 
L 211.587973 281.301333 
L 212.450149 281.301333 
L 212.881237 282.048 
L 213.312325 281.301333 
L 214.174502 281.301333 
L 213.743414 280.554667 
L 214.174502 279.808 
L 215.036678 279.808 
L 215.467766 280.554667 
L 215.898855 279.808 
L 216.761031 279.808 
L 216.329943 279.061333 
L 216.761031 278.314667 
L 215.898855 278.314667 
L 215.467766 277.568 
L 215.898855 276.821333 
L 216.761031 276.821333 
L 216.329943 276.074667 
L 216.761031 275.328 
L 217.623207 275.328 
L 218.054296 276.074667 
L 218.485384 275.328 
L 219.34756 275.328 
L 219.778648 276.074667 
L 219.34756 276.821333 
L 220.209737 276.821333 
L 220.640825 277.568 
L 221.071913 276.821333 
L 221.934089 276.821333 
L 221.503001 276.074667 
L 221.934089 275.328 
L 222.796266 275.328 
L 223.227354 276.074667 
L 223.658442 275.328 
L 224.520619 275.328 
L 224.951707 276.074667 
L 224.520619 276.821333 
L 225.382795 276.821333 
L 225.813883 277.568 
L 225.382795 278.314667 
L 224.520619 278.314667 
L 224.951707 279.061333 
L 224.520619 279.808 
L 225.382795 279.808 
L 225.813883 280.554667 
L 226.244971 279.808 
L 227.107148 279.808 
L 227.538236 280.554667 
L 227.107148 281.301333 
L 227.969324 281.301333 
L 228.400412 282.048 
L 227.969324 282.794667 
L 227.107148 282.794667 
L 227.538236 283.541333 
L 227.107148 284.288 
L 226.244971 284.288 
L 225.813883 283.541333 
L 225.382795 284.288 
L 224.520619 284.288 
L 224.951707 285.034667 
L 224.520619 285.781333 
L 225.382795 285.781333 
L 225.813883 286.528 
L 225.382795 287.274667 
L 224.520619 287.274667 
L 224.951707 288.021333 
L 224.520619 288.768 
L 225.382795 288.768 
L 225.813883 289.514667 
L 226.244971 288.768 
L 227.107148 288.768 
L 227.538236 289.514667 
L 227.107148 290.261333 
L 227.969324 290.261333 
L 228.400412 291.008 
L 228.831501 290.261333 
L 229.693677 290.261333 
L 229.262589 289.514667 
L 229.693677 288.768 
L 230.555853 288.768 
L 230.986942 289.514667 
L 231.41803 288.768 
L 232.280206 288.768 
L 232.711294 289.514667 
L 232.280206 290.261333 
L 233.142383 290.261333 
L 233.573471 291.008 
L 233.142383 291.754667 
L 232.280206 291.754667 
L 232.711294 292.501333 
L 232.280206 293.248 
L 233.142383 293.248 
L 233.573471 293.994667 
L 234.004559 293.248 
L 234.866735 293.248 
L 235.297824 293.994667 
L 234.866735 294.741333 
L 235.728912 294.741333 
L 236.16 295.488 
L 236.591088 294.741333 
L 237.453265 294.741333 
L 237.022176 293.994667 
L 237.453265 293.248 
L 238.315441 293.248 
L 238.746529 293.994667 
L 239.177617 293.248 
L 240.039794 293.248 
L 239.608706 292.501333 
L 240.039794 291.754667 
L 239.177617 291.754667 
L 238.746529 291.008 
L 239.177617 290.261333 
L 240.039794 290.261333 
L 239.608706 289.514667 
L 240.039794 288.768 
L 240.90197 288.768 
L 241.333058 289.514667 
L 241.764147 288.768 
L 242.626323 288.768 
L 243.057411 289.514667 
L 242.626323 290.261333 
L 243.488499 290.261333 
L 243.919588 291.008 
L 244.350676 290.261333 
L 245.212852 290.261333 
L 244.781764 289.514667 
L 245.212852 288.768 
L 246.075029 288.768 
L 246.506117 289.514667 
L 246.937205 288.768 
L 247.799381 288.768 
L 247.368293 288.021333 
L 247.799381 287.274667 
L 246.937205 287.274667 
L 246.506117 286.528 
L 246.937205 285.781333 
L 247.799381 285.781333 
L 247.368293 285.034667 
L 247.799381 284.288 
L 246.937205 284.288 
L 246.506117 283.541333 
L 246.075029 284.288 
L 245.212852 284.288 
L 244.781764 283.541333 
L 245.212852 282.794667 
L 244.350676 282.794667 
L 243.919588 282.048 
L 244.350676 281.301333 
L 245.212852 281.301333 
L 244.781764 280.554667 
L 245.212852 279.808 
L 246.075029 279.808 
L 246.506117 280.554667 
L 246.937205 279.808 
L 247.799381 279.808 
L 247.368293 279.061333 
L 247.799381 278.314667 
L 246.937205 278.314667 
L 246.506117 277.568 
L 246.937205 276.821333 
L 247.799381 276.821333 
L 247.368293 276.074667 
L 247.799381 275.328 
L 248.661558 275.328 
L 249.092646 276.074667 
L 249.523734 275.328 
L 250.385911 275.328 
L 250.816999 276.074667 
L 250.385911 276.821333 
L 251.248087 276.821333 
L 251.679175 277.568 
L 252.110263 276.821333 
L 252.97244 276.821333 
L 252.541352 276.074667 
L 252.97244 275.328 
L 253.834616 275.328 
L 254.265704 276.074667 
L 254.696793 275.328 
L 255.558969 275.328 
L 255.990057 276.074667 
L 255.558969 276.821333 
L 256.421145 276.821333 
L 256.852234 277.568 
L 256.421145 278.314667 
L 255.558969 278.314667 
L 255.990057 279.061333 
L 255.558969 279.808 
L 256.421145 279.808 
L 256.852234 280.554667 
L 257.283322 279.808 
L 258.145498 279.808 
L 258.576586 280.554667 
L 258.145498 281.301333 
L 259.007675 281.301333 
L 259.438763 282.048 
L 259.869851 281.301333 
L 260.732027 281.301333 
L 260.300939 280.554667 
L 260.732027 279.808 
L 261.594204 279.808 
L 262.025292 280.554667 
L 262.45638 279.808 
L 263.318557 279.808 
L 262.887468 279.061333 
L 263.318557 278.314667 
L 262.45638 278.314667 
L 262.025292 277.568 
L 262.45638 276.821333 
L 263.318557 276.821333 
L 262.887468 276.074667 
L 263.318557 275.328 
L 264.180733 275.328 
L 264.611821 276.074667 
L 265.042909 275.328 
L 265.905086 275.328 
L 266.336174 276.074667 
L 265.905086 276.821333 
L 266.767262 276.821333 
L 267.19835 277.568 
L 267.629439 276.821333 
L 268.491615 276.821333 
L 268.060527 276.074667 
L 268.491615 275.328 
L 269.353791 275.328 
L 269.78488 276.074667 
L 270.215968 275.328 
L 271.078144 275.328 
L 270.647056 274.581333 
L 271.078144 273.834667 
L 270.215968 273.834667 
L 269.78488 273.088 
L 270.215968 272.341333 
L 271.078144 272.341333 
L 270.647056 271.594667 
L 271.078144 270.848 
L 270.215968 270.848 
L 269.78488 270.101333 
L 269.353791 270.848 
L 268.491615 270.848 
L 268.060527 270.101333 
L 268.491615 269.354667 
L 267.629439 269.354667 
L 267.19835 268.608 
L 267.629439 267.861333 
L 268.491615 267.861333 
L 268.060527 267.114667 
L 268.491615 266.368 
L 269.353791 266.368 
L 269.78488 267.114667 
L 270.215968 266.368 
L 271.078144 266.368 
L 270.647056 265.621333 
L 271.078144 264.874667 
L 270.215968 264.874667 
L 269.78488 264.128 
L 270.215968 263.381333 
L 271.078144 263.381333 
L 270.647056 262.634667 
L 271.078144 261.888 
L 270.215968 261.888 
L 269.78488 261.141333 
L 269.353791 261.888 
L 268.491615 261.888 
L 268.060527 261.141333 
L 268.491615 260.394667 
L 267.629439 260.394667 
L 267.19835 259.648 
L 266.767262 260.394667 
L 265.905086 260.394667 
L 266.336174 261.141333 
L 265.905086 261.888 
L 265.042909 261.888 
L 264.611821 261.141333 
L 264.180733 261.888 
L 263.318557 261.888 
L 262.887468 261.141333 
L 263.318557 260.394667 
L 262.45638 260.394667 
L 262.025292 259.648 
L 262.45638 258.901333 
L 263.318557 258.901333 
L 262.887468 258.154667 
L 263.318557 257.408 
L 262.45638 257.408 
L 262.025292 256.661333 
L 261.594204 257.408 
L 260.732027 257.408 
L 260.300939 256.661333 
L 260.732027 255.914667 
L 259.869851 255.914667 
L 259.438763 255.168 
L 259.869851 254.421333 
L 260.732027 254.421333 
L 260.300939 253.674667 
L 260.732027 252.928 
L 261.594204 252.928 
L 262.025292 253.674667 
L 262.45638 252.928 
L 263.318557 252.928 
L 262.887468 252.181333 
L 263.318557 251.434667 
L 262.45638 251.434667 
L 262.025292 250.688 
L 262.45638 249.941333 
L 263.318557 249.941333 
L 262.887468 249.194667 
L 263.318557 248.448 
L 264.180733 248.448 
L 264.611821 249.194667 
L 265.042909 248.448 
L 265.905086 248.448 
L 266.336174 249.194667 
L 265.905086 249.941333 
L 266.767262 249.941333 
L 267.19835 250.688 
L 267.629439 249.941333 
L 268.491615 249.941333 
L 268.060527 249.194667 
L 268.491615 248.448 
L 269.353791 248.448 
L 269.78488 249.194667 
L 270.215968 248.448 
L 271.078144 248.448 
L 270.647056 247.701333 
L 271.078144 246.954667 
L 270.215968 246.954667 
L 269.78488 246.208 
L 270.215968 245.461333 
L 271.078144 245.461333 
L 270.647056 244.714667 
L 271.078144 243.968 
L 270.215968 243.968 
L 269.78488 243.221333 
L 269.353791 243.968 
L 268.491615 243.968 
L 268.060527 243.221333 
L 268.491615 242.474667 
L 267.629439 242.474667 
L 267.19835 241.728 
L 267.629439 240.981333 
L 268.491615 240.981333 
L 268.060527 240.234667 
L 268.491615 239.488 
L 269.353791 239.488 
L 269.78488 240.234667 
L 270.215968 239.488 
L 271.078144 239.488 
L 270.647056 238.741333 
L 271.078144 237.994667 
L 270.215968 237.994667 
L 269.78488 237.248 
L 270.215968 236.501333 
L 271.078144 236.501333 
L 270.647056 235.754667 
L 271.078144 235.008 
L 271.940321 235.008 
L 272.371409 235.754667 
L 272.802497 235.008 
L 273.664673 235.008 
L 274.095762 235.754667 
L 273.664673 236.501333 
L 274.52685 236.501333 
L 274.957938 237.248 
L 275.389026 236.501333 
L 276.251203 236.501333 
L 275.820114 235.754667 
L 276.251203 235.008 
L 277.113379 235.008 
L 277.544467 235.754667 
L 277.975555 235.008 
L 278.837732 235.008 
L 279.26882 235.754667 
L 278.837732 236.501333 
L 279.699908 236.501333 
L 280.130997 237.248 
L 279.699908 237.994667 
L 278.837732 237.994667 
L 279.26882 238.741333 
L 278.837732 239.488 
L 279.699908 239.488 
L 280.130997 240.234667 
L 280.562085 239.488 
L 281.424261 239.488 
L 281.855349 240.234667 
L 281.424261 240.981333 
L 282.286438 240.981333 
L 282.717526 241.728 
L 283.148614 240.981333 
L 284.01079 240.981333 
L 283.579702 240.234667 
L 284.01079 239.488 
L 284.872967 239.488 
L 285.304055 240.234667 
L 285.735143 239.488 
L 286.59732 239.488 
L 286.166231 238.741333 
L 286.59732 237.994667 
L 285.735143 237.994667 
L 285.304055 237.248 
L 285.735143 236.501333 
L 286.59732 236.501333 
L 286.166231 235.754667 
L 286.59732 235.008 
L 287.459496 235.008 
L 287.890584 235.754667 
L 288.321672 235.008 
L 289.183849 235.008 
L 289.614937 235.754667 
L 289.183849 236.501333 
L 290.046025 236.501333 
L 290.477113 237.248 
L 290.908202 236.501333 
L 291.770378 236.501333 
L 291.33929 235.754667 
L 291.770378 235.008 
L 292.632554 235.008 
L 293.063643 235.754667 
L 293.494731 235.008 
L 294.356907 235.008 
L 294.787995 235.754667 
L 294.356907 236.501333 
L 295.219084 236.501333 
L 295.650172 237.248 
L 295.219084 237.994667 
L 294.356907 237.994667 
L 294.787995 238.741333 
L 294.356907 239.488 
L 295.219084 239.488 
L 295.650172 240.234667 
L 296.08126 239.488 
L 296.943436 239.488 
L 297.374525 240.234667 
L 296.943436 240.981333 
L 297.805613 240.981333 
L 298.236701 241.728 
L 297.805613 242.474667 
L 296.943436 242.474667 
L 297.374525 243.221333 
L 296.943436 243.968 
L 296.08126 243.968 
L 295.650172 243.221333 
L 295.219084 243.968 
L 294.356907 243.968 
L 294.787995 244.714667 
L 294.356907 245.461333 
L 295.219084 245.461333 
L 295.650172 246.208 
L 295.219084 246.954667 
L 294.356907 246.954667 
L 294.787995 247.701333 
L 294.356907 248.448 
L 295.219084 248.448 
L 295.650172 249.194667 
L 296.08126 248.448 
L 296.943436 248.448 
L 297.374525 249.194667 
L 296.943436 249.941333 
L 297.805613 249.941333 
L 298.236701 250.688 
L 298.667789 249.941333 
L 299.529966 249.941333 
L 299.098877 249.194667 
L 299.529966 248.448 
L 300.392142 248.448 
L 300.82323 249.194667 
L 301.254318 248.448 
L 302.116495 248.448 
L 302.547583 249.194667 
L 302.116495 249.941333 
L 302.978671 249.941333 
L 303.409759 250.688 
L 302.978671 251.434667 
L 302.116495 251.434667 
L 302.547583 252.181333 
L 302.116495 252.928 
L 302.978671 252.928 
L 303.409759 253.674667 
L 303.840848 252.928 
L 304.703024 252.928 
L 305.134112 253.674667 
L 304.703024 254.421333 
L 305.5652 254.421333 
L 305.996289 255.168 
L 306.427377 254.421333 
L 307.289553 254.421333 
L 306.858465 253.674667 
L 307.289553 252.928 
L 308.15173 252.928 
L 308.582818 253.674667 
L 309.013906 252.928 
L 309.876082 252.928 
L 309.444994 252.181333 
L 309.876082 251.434667 
L 309.013906 251.434667 
L 308.582818 250.688 
L 309.013906 249.941333 
L 309.876082 249.941333 
L 309.444994 249.194667 
L 309.876082 248.448 
L 310.738259 248.448 
L 311.169347 249.194667 
L 311.600435 248.448 
L 312.462612 248.448 
L 312.8937 249.194667 
L 312.462612 249.941333 
L 313.324788 249.941333 
L 313.755876 250.688 
L 314.186964 249.941333 
L 315.049141 249.941333 
L 314.618053 249.194667 
L 315.049141 248.448 
L 315.911317 248.448 
L 316.342405 249.194667 
L 316.773494 248.448 
L 317.63567 248.448 
L 317.204582 247.701333 
L 317.63567 246.954667 
L 316.773494 246.954667 
L 316.342405 246.208 
L 316.773494 245.461333 
L 317.63567 245.461333 
L 317.204582 244.714667 
L 317.63567 243.968 
L 316.773494 243.968 
L 316.342405 243.221333 
L 315.911317 243.968 
L 315.049141 243.968 
L 314.618053 243.221333 
L 315.049141 242.474667 
L 314.186964 242.474667 
L 313.755876 241.728 
L 314.186964 240.981333 
L 315.049141 240.981333 
L 314.618053 240.234667 
L 315.049141 239.488 
L 315.911317 239.488 
L 316.342405 240.234667 
L 316.773494 239.488 
L 317.63567 239.488 
L 317.204582 238.741333 
L 317.63567 237.994667 
L 316.773494 237.994667 
L 316.342405 237.248 
L 316.773494 236.501333 
L 317.63567 236.501333 
L 317.204582 235.754667 
L 317.63567 235.008 
L 318.497846 235.008 
L 318.928935 235.754667 
L 319.360023 235.008 
L 320.222199 235.008 
L 320.653287 235.754667 
L 320.222199 236.501333 
L 321.084376 236.501333 
L 321.515464 237.248 
L 321.946552 236.501333 
L 322.808728 236.501333 
L 322.37764 235.754667 
L 322.808728 235.008 
L 323.670905 235.008 
L 324.101993 235.754667 
L 324.533081 235.008 
L 325.395258 235.008 
L 325.826346 235.754667 
L 325.395258 236.501333 
L 326.257434 236.501333 
L 326.688522 237.248 
L 326.257434 237.994667 
L 325.395258 237.994667 
L 325.826346 238.741333 
L 325.395258 239.488 
L 326.257434 239.488 
L 326.688522 240.234667 
L 327.11961 239.488 
L 327.981787 239.488 
L 328.412875 240.234667 
L 327.981787 240.981333 
L 328.843963 240.981333 
L 329.275051 241.728 
L 329.70614 240.981333 
L 330.568316 240.981333 
L 330.137228 240.234667 
L 330.568316 239.488 
L 331.430492 239.488 
L 331.861581 240.234667 
L 332.292669 239.488 
L 333.154845 239.488 
L 332.723757 238.741333 
L 333.154845 237.994667 
L 332.292669 237.994667 
L 331.861581 237.248 
L 332.292669 236.501333 
L 333.154845 236.501333 
L 332.723757 235.754667 
L 333.154845 235.008 
L 334.017022 235.008 
L 334.44811 235.754667 
L 334.879198 235.008 
L 335.741374 235.008 
L 336.172463 235.754667 
L 335.741374 236.501333 
L 336.603551 236.501333 
L 337.034639 237.248 
L 337.465727 236.501333 
L 338.327904 236.501333 
L 337.896815 235.754667 
L 338.327904 235.008 
L 339.19008 235.008 
L 339.621168 235.754667 
L 340.052256 235.008 
L 340.914433 235.008 
L 340.483345 234.261333 
L 340.914433 233.514667 
L 340.052256 233.514667 
L 339.621168 232.768 
L 340.052256 232.021333 
L 340.914433 232.021333 
L 340.483345 231.274667 
L 340.914433 230.528 
L 340.052256 230.528 
L 339.621168 229.781333 
L 339.19008 230.528 
L 338.327904 230.528 
L 337.896815 229.781333 
L 338.327904 229.034667 
L 337.465727 229.034667 
L 337.034639 228.288 
L 337.465727 227.541333 
L 338.327904 227.541333 
L 337.896815 226.794667 
L 338.327904 226.048 
L 339.19008 226.048 
L 339.621168 226.794667 
L 340.052256 226.048 
L 340.914433 226.048 
L 340.483345 225.301333 
L 340.914433 224.554667 
L 340.052256 224.554667 
L 339.621168 223.808 
L 340.052256 223.061333 
L 340.914433 223.061333 
L 340.483345 222.314667 
L 340.914433 221.568 
L 340.052256 221.568 
L 339.621168 220.821333 
L 339.19008 221.568 
L 338.327904 221.568 
L 337.896815 220.821333 
L 338.327904 220.074667 
L 337.465727 220.074667 
L 337.034639 219.328 
L 336.603551 220.074667 
L 335.741374 220.074667 
L 336.172463 220.821333 
L 335.741374 221.568 
L 334.879198 221.568 
L 334.44811 220.821333 
L 334.017022 221.568 
L 333.154845 221.568 
L 332.723757 220.821333 
L 333.154845 220.074667 
L 332.292669 220.074667 
L 331.861581 219.328 
L 332.292669 218.581333 
L 333.154845 218.581333 
L 332.723757 217.834667 
L 333.154845 217.088 
L 332.292669 217.088 
L 331.861581 216.341333 
L 331.430492 217.088 
L 330.568316 217.088 
L 330.137228 216.341333 
L 330.568316 215.594667 
L 329.70614 215.594667 
L 329.275051 214.848 
L 329.70614 214.101333 
L 330.568316 214.101333 
L 330.137228 213.354667 
L 330.568316 212.608 
L 331.430492 212.608 
L 331.861581 213.354667 
L 332.292669 212.608 
L 333.154845 212.608 
L 332.723757 211.861333 
L 333.154845 211.114667 
L 332.292669 211.114667 
L 331.861581 210.368 
L 332.292669 209.621333 
L 333.154845 209.621333 
L 332.723757 208.874667 
L 333.154845 208.128 
L 334.017022 208.128 
L 334.44811 208.874667 
L 334.879198 208.128 
L 335.741374 208.128 
L 336.172463 208.874667 
L 335.741374 209.621333 
L 336.603551 209.621333 
L 337.034639 210.368 
L 337.465727 209.621333 
L 338.327904 209.621333 
L 337.896815 208.874667 
L 338.327904 208.128 
L 339.19008 208.128 
L 339.621168 208.874667 
L 340.052256 208.128 
L 340.914433 208.128 
L 340.483345 207.381333 
L 340.914433 206.634667 
L 340.052256 206.634667 
L 339.621168 205.888 
L 340.052256 205.141333 
L 340.914433 205.141333 
L 340.483345 204.394667 
L 340.914433 203.648 
L 340.052256 203.648 
L 339.621168 202.901333 
L 339.19008 203.648 
L 338.327904 203.648 
L 337.896815 202.901333 
L 338.327904 202.154667 
L 337.465727 202.154667 
L 337.034639 201.408 
L 337.465727 200.661333 
L 338.327904 200.661333 
L 337.896815 199.914667 
L 338.327904 199.168 
L 339.19008 199.168 
L 339.621168 199.914667 
L 340.052256 199.168 
L 340.914433 199.168 
L 340.483345 198.421333 
L 340.914433 197.674667 
L 340.052256 197.674667 
L 339.621168 196.928 
L 340.052256 196.181333 
L 340.914433 196.181333 
L 340.483345 195.434667 
L 340.914433 194.688 
L 340.052256 194.688 
L 339.621168 193.941333 
L 339.19008 194.688 
L 338.327904 194.688 
L 337.896815 193.941333 
L 338.327904 193.194667 
L 337.465727 193.194667 
L 337.034639 192.448 
L 336.603551 193.194667 
L 335.741374 193.194667 
L 336.172463 193.941333 
L 335.741374 194.688 
L 334.879198 194.688 
L 334.44811 193.941333 
L 334.017022 194.688 
L 333.154845 194.688 
L 332.723757 193.941333 
L 333.154845 193.194667 
L 332.292669 193.194667 
L 331.861581 192.448 
L 332.292669 191.701333 
L 333.154845 191.701333 
L 332.723757 190.954667 
L 333.154845 190.208 
L 332.292669 190.208 
L 331.861581 189.461333 
L 331.430492 190.208 
L 330.568316 190.208 
L 330.137228 189.461333 
L 330.568316 188.714667 
L 329.70614 188.714667 
L 329.275051 187.968 
L 328.843963 188.714667 
L 327.981787 188.714667 
L 328.412875 189.461333 
L 327.981787 190.208 
L 327.11961 190.208 
L 326.688522 189.461333 
L 326.257434 190.208 
L 325.395258 190.208 
L 325.826346 190.954667 
L 325.395258 191.701333 
L 326.257434 191.701333 
L 326.688522 192.448 
L 326.257434 193.194667 
L 325.395258 193.194667 
L 325.826346 193.941333 
L 325.395258 194.688 
L 324.533081 194.688 
L 324.101993 193.941333 
L 323.670905 194.688 
L 322.808728 194.688 
L 322.37764 193.941333 
L 322.808728 193.194667 
L 321.946552 193.194667 
L 321.515464 192.448 
L 321.084376 193.194667 
L 320.222199 193.194667 
L 320.653287 193.941333 
L 320.222199 194.688 
L 319.360023 194.688 
L 318.928935 193.941333 
L 318.497846 194.688 
L 317.63567 194.688 
L 317.204582 193.941333 
L 317.63567 193.194667 
L 316.773494 193.194667 
L 316.342405 192.448 
L 316.773494 191.701333 
L 317.63567 191.701333 
L 317.204582 190.954667 
L 317.63567 190.208 
L 316.773494 190.208 
L 316.342405 189.461333 
L 315.911317 190.208 
L 315.049141 190.208 
L 314.618053 189.461333 
L 315.049141 188.714667 
L 314.186964 188.714667 
L 313.755876 187.968 
L 314.186964 187.221333 
L 315.049141 187.221333 
L 314.618053 186.474667 
L 315.049141 185.728 
L 315.911317 185.728 
L 316.342405 186.474667 
L 316.773494 185.728 
L 317.63567 185.728 
L 317.204582 184.981333 
L 317.63567 184.234667 
L 316.773494 184.234667 
L 316.342405 183.488 
L 316.773494 182.741333 
L 317.63567 182.741333 
L 317.204582 181.994667 
L 317.63567 181.248 
L 316.773494 181.248 
L 316.342405 180.501333 
L 315.911317 181.248 
L 315.049141 181.248 
L 314.618053 180.501333 
L 315.049141 179.754667 
L 314.186964 179.754667 
L 313.755876 179.008 
L 313.324788 179.754667 
L 312.462612 179.754667 
L 312.8937 180.501333 
L 312.462612 181.248 
L 311.600435 181.248 
L 311.169347 180.501333 
L 310.738259 181.248 
L 309.876082 181.248 
L 309.444994 180.501333 
L 309.876082 179.754667 
L 309.013906 179.754667 
L 308.582818 179.008 
L 309.013906 178.261333 
L 309.876082 178.261333 
L 309.444994 177.514667 
L 309.876082 176.768 
L 309.013906 176.768 
L 308.582818 176.021333 
L 308.15173 176.768 
L 307.289553 176.768 
L 306.858465 176.021333 
L 307.289553 175.274667 
L 306.427377 175.274667 
L 305.996289 174.528 
L 306.427377 173.781333 
L 307.289553 173.781333 
L 306.858465 173.034667 
L 307.289553 172.288 
L 308.15173 172.288 
L 308.582818 173.034667 
L 309.013906 172.288 
L 309.876082 172.288 
L 309.444994 171.541333 
L 309.876082 170.794667 
L 309.013906 170.794667 
L 308.582818 170.048 
L 309.013906 169.301333 
L 309.876082 169.301333 
L 309.444994 168.554667 
L 309.876082 167.808 
L 310.738259 167.808 
L 311.169347 168.554667 
L 311.600435 167.808 
L 312.462612 167.808 
L 312.8937 168.554667 
L 312.462612 169.301333 
L 313.324788 169.301333 
L 313.755876 170.048 
L 314.186964 169.301333 
L 315.049141 169.301333 
L 314.618053 168.554667 
L 315.049141 167.808 
L 315.911317 167.808 
L 316.342405 168.554667 
L 316.773494 167.808 
L 317.63567 167.808 
L 317.204582 167.061333 
L 317.63567 166.314667 
L 316.773494 166.314667 
L 316.342405 165.568 
L 316.773494 164.821333 
L 317.63567 164.821333 
L 317.204582 164.074667 
L 317.63567 163.328 
L 316.773494 163.328 
L 316.342405 162.581333 
L 315.911317 163.328 
L 315.049141 163.328 
L 314.618053 162.581333 
L 315.049141 161.834667 
L 314.186964 161.834667 
L 313.755876 161.088 
L 314.186964 160.341333 
L 315.049141 160.341333 
L 314.618053 159.594667 
L 315.049141 158.848 
L 315.911317 158.848 
L 316.342405 159.594667 
L 316.773494 158.848 
L 317.63567 158.848 
L 317.204582 158.101333 
L 317.63567 157.354667 
L 316.773494 157.354667 
L 316.342405 156.608 
L 316.773494 155.861333 
L 317.63567 155.861333 
L 317.204582 155.114667 
L 317.63567 154.368 
L 318.497846 154.368 
L 318.928935 155.114667 
L 319.360023 154.368 
L 320.222199 154.368 
L 320.653287 155.114667 
L 320.222199 155.861333 
L 321.084376 155.861333 
L 321.515464 156.608 
L 321.946552 155.861333 
L 322.808728 155.861333 
L 322.37764 155.114667 
L 322.808728 154.368 
L 323.670905 154.368 
L 324.101993 155.114667 
L 324.533081 154.368 
L 325.395258 154.368 
L 325.826346 155.114667 
L 325.395258 155.861333 
L 326.257434 155.861333 
L 326.688522 156.608 
L 326.257434 157.354667 
L 325.395258 157.354667 
L 325.826346 158.101333 
L 325.395258 158.848 
L 326.257434 158.848 
L 326.688522 159.594667 
L 327.11961 158.848 
L 327.981787 158.848 
L 328.412875 159.594667 
L 327.981787 160.341333 
L 328.843963 160.341333 
L 329.275051 161.088 
L 329.70614 160.341333 
L 330.568316 160.341333 
L 330.137228 159.594667 
L 330.568316 158.848 
L 331.430492 158.848 
L 331.861581 159.594667 
L 332.292669 158.848 
L 333.154845 158.848 
L 332.723757 158.101333 
L 333.154845 157.354667 
L 332.292669 157.354667 
L 331.861581 156.608 
L 332.292669 155.861333 
L 333.154845 155.861333 
L 332.723757 155.114667 
L 333.154845 154.368 
L 334.017022 154.368 
L 334.44811 155.114667 
L 334.879198 154.368 
L 335.741374 154.368 
L 336.172463 155.114667 
L 335.741374 155.861333 
L 336.603551 155.861333 
L 337.034639 156.608 
L 337.465727 155.861333 
L 338.327904 155.861333 
L 337.896815 155.114667 
L 338.327904 154.368 
L 339.19008 154.368 
L 339.621168 155.114667 
L 340.052256 154.368 
L 340.914433 154.368 
L 340.483345 153.621333 
L 340.914433 152.874667 
L 340.052256 152.874667 
L 339.621168 152.128 
L 340.052256 151.381333 
L 340.914433 151.381333 
L 340.483345 150.634667 
L 340.914433 149.888 
L 340.052256 149.888 
L 339.621168 149.141333 
L 339.19008 149.888 
L 338.327904 149.888 
L 337.896815 149.141333 
L 338.327904 148.394667 
L 337.465727 148.394667 
L 337.034639 147.648 
L 337.465727 146.901333 
L 338.327904 146.901333 
L 337.896815 146.154667 
L 338.327904 145.408 
L 339.19008 145.408 
L 339.621168 146.154667 
L 340.052256 145.408 
L 340.914433 145.408 
L 340.483345 144.661333 
L 340.914433 143.914667 
L 340.052256 143.914667 
L 339.621168 143.168 
L 340.052256 142.421333 
L 340.914433 142.421333 
L 340.483345 141.674667 
L 340.914433 140.928 
L 340.052256 140.928 
L 339.621168 140.181333 
L 339.19008 140.928 
L 338.327904 140.928 
L 337.896815 140.181333 
L 338.327904 139.434667 
L 337.465727 139.434667 
L 337.034639 138.688 
L 336.603551 139.434667 
L 335.741374 139.434667 
L 336.172463 140.181333 
L 335.741374 140.928 
L 334.879198 140.928 
L 334.44811 140.181333 
L 334.017022 140.928 
L 333.154845 140.928 
L 332.723757 140.181333 
L 333.154845 139.434667 
L 332.292669 139.434667 
L 331.861581 138.688 
L 332.292669 137.941333 
L 333.154845 137.941333 
L 332.723757 137.194667 
L 333.154845 136.448 
L 332.292669 136.448 
L 331.861581 135.701333 
L 331.430492 136.448 
L 330.568316 136.448 
L 330.137228 135.701333 
L 330.568316 134.954667 
L 329.70614 134.954667 
L 329.275051 134.208 
L 329.70614 133.461333 
L 330.568316 133.461333 
L 330.137228 132.714667 
L 330.568316 131.968 
L 331.430492 131.968 
L 331.861581 132.714667 
L 332.292669 131.968 
L 333.154845 131.968 
L 332.723757 131.221333 
L 333.154845 130.474667 
L 332.292669 130.474667 
L 331.861581 129.728 
L 332.292669 128.981333 
L 333.154845 128.981333 
L 332.723757 128.234667 
L 333.154845 127.488 
L 334.017022 127.488 
L 334.44811 128.234667 
L 334.879198 127.488 
L 335.741374 127.488 
L 336.172463 128.234667 
L 335.741374 128.981333 
L 336.603551 128.981333 
L 337.034639 129.728 
L 337.465727 128.981333 
L 338.327904 128.981333 
L 337.896815 128.234667 
L 338.327904 127.488 
L 339.19008 127.488 
L 339.621168 128.234667 
L 340.052256 127.488 
L 340.914433 127.488 
L 340.483345 126.741333 
L 340.914433 125.994667 
L 340.052256 125.994667 
L 339.621168 125.248 
L 340.052256 124.501333 
L 340.914433 124.501333 
L 340.483345 123.754667 
L 340.914433 123.008 
L 340.052256 123.008 
L 339.621168 122.261333 
L 339.19008 123.008 
L 338.327904 123.008 
L 337.896815 122.261333 
L 338.327904 121.514667 
L 337.465727 121.514667 
L 337.034639 120.768 
L 337.465727 120.021333 
L 338.327904 120.021333 
L 337.896815 119.274667 
L 338.327904 118.528 
L 339.19008 118.528 
L 339.621168 119.274667 
L 340.052256 118.528 
L 340.914433 118.528 
L 340.483345 117.781333 
L 340.914433 117.034667 
L 340.052256 117.034667 
L 339.621168 116.288 
L 340.052256 115.541333 
L 340.914433 115.541333 
L 340.483345 114.794667 
L 340.914433 114.048 
L 340.052256 114.048 
L 339.621168 113.301333 
L 339.19008 114.048 
L 338.327904 114.048 
L 337.896815 113.301333 
L 338.327904 112.554667 
L 337.465727 112.554667 
L 337.034639 111.808 
L 336.603551 112.554667 
L 335.741374 112.554667 
L 336.172463 113.301333 
L 335.741374 114.048 
L 334.879198 114.048 
L 334.44811 113.301333 
L 334.017022 114.048 
L 333.154845 114.048 
L 332.723757 113.301333 
L 333.154845 112.554667 
L 332.292669 112.554667 
L 331.861581 111.808 
L 332.292669 111.061333 
L 333.154845 111.061333 
L 332.723757 110.314667 
L 333.154845 109.568 
L 332.292669 109.568 
L 331.861581 108.821333 
L 331.430492 109.568 
L 330.568316 109.568 
L 330.137228 108.821333 
L 330.568316 108.074667 
L 329.70614 108.074667 
L 329.275051 107.328 
L 328.843963 108.074667 
L 327.981787 108.074667 
L 328.412875 108.821333 
L 327.981787 109.568 
L 327.11961 109.568 
L 326.688522 108.821333 
L 326.257434 109.568 
L 325.395258 109.568 
L 325.826346 110.314667 
L 325.395258 111.061333 
L 326.257434 111.061333 
L 326.688522 111.808 
L 326.257434 112.554667 
L 325.395258 112.554667 
L 325.826346 113.301333 
L 325.395258 114.048 
L 324.533081 114.048 
L 324.101993 113.301333 
L 323.670905 114.048 
L 322.808728 114.048 
L 322.37764 113.301333 
L 322.808728 112.554667 
L 321.946552 112.554667 
L 321.515464 111.808 
L 321.084376 112.554667 
L 320.222199 112.554667 
L 320.653287 113.301333 
L 320.222199 114.048 
L 319.360023 114.048 
L 318.928935 113.301333 
L 318.497846 114.048 
L 317.63567 114.048 
L 317.204582 113.301333 
L 317.63567 112.554667 
L 316.773494 112.554667 
L 316.342405 111.808 
L 316.773494 111.061333 
L 317.63567 111.061333 
L 317.204582 110.314667 
L 317.63567 109.568 
L 316.773494 109.568 
L 316.342405 108.821333 
L 315.911317 109.568 
L 315.049141 109.568 
L 314.618053 108.821333 
L 315.049141 108.074667 
L 314.186964 108.074667 
L 313.755876 107.328 
L 314.186964 106.581333 
L 315.049141 106.581333 
L 314.618053 105.834667 
L 315.049141 105.088 
L 315.911317 105.088 
L 316.342405 105.834667 
L 316.773494 105.088 
L 317.63567 105.088 
L 317.204582 104.341333 
L 317.63567 103.594667 
L 316.773494 103.594667 
L 316.342405 102.848 
L 316.773494 102.101333 
L 317.63567 102.101333 
L 317.204582 101.354667 
L 317.63567 100.608 
L 316.773494 100.608 
L 316.342405 99.861333 
L 315.911317 100.608 
L 315.049141 100.608 
L 314.618053 99.861333 
L 315.049141 99.114667 
L 314.186964 99.114667 
L 313.755876 98.368 
L 313.324788 99.114667 
L 312.462612 99.114667 
L 312.8937 99.861333 
L 312.462612 100.608 
L 311.600435 100.608 
L 311.169347 99.861333 
L 310.738259 100.608 
L 309.876082 100.608 
L 309.444994 99.861333 
L 309.876082 99.114667 
L 309.013906 99.114667 
L 308.582818 98.368 
L 309.013906 97.621333 
L 309.876082 97.621333 
L 309.444994 96.874667 
L 309.876082 96.128 
L 309.013906 96.128 
L 308.582818 95.381333 
L 308.15173 96.128 
L 307.289553 96.128 
L 306.858465 95.381333 
L 307.289553 94.634667 
L 306.427377 94.634667 
L 305.996289 93.888 
L 305.5652 94.634667 
L 304.703024 94.634667 
L 305.134112 95.381333 
L 304.703024 96.128 
L 303.840848 96.128 
L 303.409759 95.381333 
L 302.978671 96.128 
L 302.116495 96.128 
L 302.547583 96.874667 
L 302.116495 97.621333 
L 302.978671 97.621333 
L 303.409759 98.368 
L 302.978671 99.114667 
L 302.116495 99.114667 
L 302.547583 99.861333 
L 302.116495 100.608 
L 301.254318 100.608 
L 300.82323 99.861333 
L 300.392142 100.608 
L 299.529966 100.608 
L 299.098877 99.861333 
L 299.529966 99.114667 
L 298.667789 99.114667 
L 298.236701 98.368 
L 297.805613 99.114667 
L 296.943436 99.114667 
L 297.374525 99.861333 
L 296.943436 100.608 
L 296.08126 100.608 
L 295.650172 99.861333 
L 295.219084 100.608 
L 294.356907 100.608 
L 294.787995 101.354667 
L 294.356907 102.101333 
L 295.219084 102.101333 
L 295.650172 102.848 
L 295.219084 103.594667 
L 294.356907 103.594667 
L 294.787995 104.341333 
L 294.356907 105.088 
L 295.219084 105.088 
L 295.650172 105.834667 
L 296.08126 105.088 
L 296.943436 105.088 
L 297.374525 105.834667 
L 296.943436 106.581333 
L 297.805613 106.581333 
L 298.236701 107.328 
L 297.805613 108.074667 
L 296.943436 108.074667 
L 297.374525 108.821333 
L 296.943436 109.568 
L 296.08126 109.568 
L 295.650172 108.821333 
L 295.219084 109.568 
L 294.356907 109.568 
L 294.787995 110.314667 
L 294.356907 111.061333 
L 295.219084 111.061333 
L 295.650172 111.808 
L 295.219084 112.554667 
L 294.356907 112.554667 
L 294.787995 113.301333 
L 294.356907 114.048 
L 293.494731 114.048 
L 293.063643 113.301333 
L 292.632554 114.048 
L 291.770378 114.048 
L 291.33929 113.301333 
L 291.770378 112.554667 
L 290.908202 112.554667 
L 290.477113 111.808 
L 290.046025 112.554667 
L 289.183849 112.554667 
L 289.614937 113.301333 
L 289.183849 114.048 
L 288.321672 114.048 
L 287.890584 113.301333 
L 287.459496 114.048 
L 286.59732 114.048 
L 286.166231 113.301333 
L 286.59732 112.554667 
L 285.735143 112.554667 
L 285.304055 111.808 
L 285.735143 111.061333 
L 286.59732 111.061333 
L 286.166231 110.314667 
L 286.59732 109.568 
L 285.735143 109.568 
L 285.304055 108.821333 
L 284.872967 109.568 
L 284.01079 109.568 
L 283.579702 108.821333 
L 284.01079 108.074667 
L 283.148614 108.074667 
L 282.717526 107.328 
L 282.286438 108.074667 
L 281.424261 108.074667 
L 281.855349 108.821333 
L 281.424261 109.568 
L 280.562085 109.568 
L 280.130997 108.821333 
L 279.699908 109.568 
L 278.837732 109.568 
L 279.26882 110.314667 
L 278.837732 111.061333 
L 279.699908 111.061333 
L 280.130997 111.808 
L 279.699908 112.554667 
L 278.837732 112.554667 
L 279.26882 113.301333 
L 278.837732 114.048 
L 277.975555 114.048 
L 277.544467 113.301333 
L 277.113379 114.048 
L 276.251203 114.048 
L 275.820114 113.301333 
L 276.251203 112.554667 
L 275.389026 112.554667 
L 274.957938 111.808 
L 274.52685 112.554667 
L 273.664673 112.554667 
L 274.095762 113.301333 
L 273.664673 114.048 
L 272.802497 114.048 
L 272.371409 113.301333 
L 271.940321 114.048 
L 271.078144 114.048 
L 270.647056 113.301333 
L 271.078144 112.554667 
L 270.215968 112.554667 
L 269.78488 111.808 
L 270.215968 111.061333 
L 271.078144 111.061333 
L 270.647056 110.314667 
L 271.078144 109.568 
L 270.215968 109.568 
L 269.78488 108.821333 
L 269.353791 109.568 
L 268.491615 109.568 
L 268.060527 108.821333 
L 268.491615 108.074667 
L 267.629439 108.074667 
L 267.19835 107.328 
L 267.629439 106.581333 
L 268.491615 106.581333 
L 268.060527 105.834667 
L 268.491615 105.088 
L 269.353791 105.088 
L 269.78488 105.834667 
L 270.215968 105.088 
L 271.078144 105.088 
L 270.647056 104.341333 
L 271.078144 103.594667 
L 270.215968 103.594667 
L 269.78488 102.848 
L 270.215968 102.101333 
L 271.078144 102.101333 
L 270.647056 101.354667 
L 271.078144 100.608 
L 270.215968 100.608 
L 269.78488 99.861333 
L 269.353791 100.608 
L 268.491615 100.608 
L 268.060527 99.861333 
L 268.491615 99.114667 
L 267.629439 99.114667 
L 267.19835 98.368 
L 266.767262 99.114667 
L 265.905086 99.114667 
L 266.336174 99.861333 
L 265.905086 100.608 
L 265.042909 100.608 
L 264.611821 99.861333 
L 264.180733 100.608 
L 263.318557 100.608 
L 262.887468 99.861333 
L 263.318557 99.114667 
L 262.45638 99.114667 
L 262.025292 98.368 
L 262.45638 97.621333 
L 263.318557 97.621333 
L 262.887468 96.874667 
L 263.318557 96.128 
L 262.45638 96.128 
L 262.025292 95.381333 
L 261.594204 96.128 
L 260.732027 96.128 
L 260.300939 95.381333 
L 260.732027 94.634667 
L 259.869851 94.634667 
L 259.438763 93.888 
L 259.869851 93.141333 
L 260.732027 93.141333 
L 260.300939 92.394667 
L 260.732027 91.648 
L 261.594204 91.648 
L 262.025292 92.394667 
L 262.45638 91.648 
L 263.318557 91.648 
L 262.887468 90.901333 
L 263.318557 90.154667 
L 262.45638 90.154667 
L 262.025292 89.408 
L 262.45638 88.661333 
L 263.318557 88.661333 
L 262.887468 87.914667 
L 263.318557 87.168 
L 264.180733 87.168 
L 264.611821 87.914667 
L 265.042909 87.168 
L 265.905086 87.168 
L 266.336174 87.914667 
L 265.905086 88.661333 
L 266.767262 88.661333 
L 267.19835 89.408 
L 267.629439 88.661333 
L 268.491615 88.661333 
L 268.060527 87.914667 
L 268.491615 87.168 
L 269.353791 87.168 
L 269.78488 87.914667 
L 270.215968 87.168 
L 271.078144 87.168 
L 270.647056 86.421333 
L 271.078144 85.674667 
L 270.215968 85.674667 
L 269.78488 84.928 
L 270.215968 84.181333 
L 271.078144 84.181333 
L 270.647056 83.434667 
L 271.078144 82.688 
L 270.215968 82.688 
L 269.78488 81.941333 
L 269.353791 82.688 
L 268.491615 82.688 
L 268.060527 81.941333 
L 268.491615 81.194667 
L 267.629439 81.194667 
L 267.19835 80.448 
L 267.629439 79.701333 
L 268.491615 79.701333 
L 268.060527 78.954667 
L 268.491615 78.208 
L 269.353791 78.208 
L 269.78488 78.954667 
L 270.215968 78.208 
L 271.078144 78.208 
L 270.647056 77.461333 
L 271.078144 76.714667 
L 270.215968 76.714667 
L 269.78488 75.968 
L 270.215968 75.221333 
L 271.078144 75.221333 
L 270.647056 74.474667 
L 271.078144 73.728 
L 270.215968 73.728 
L 269.78488 72.981333 
L 269.353791 73.728 
L 268.491615 73.728 
L 268.060527 72.981333 
L 268.491615 72.234667 
L 267.629439 72.234667 
L 267.19835 71.488 
L 266.767262 72.234667 
L 265.905086 72.234667 
L 266.336174 72.981333 
L 265.905086 73.728 
L 265.042909 73.728 
L 264.611821 72.981333 
L 264.180733 73.728 
L 263.318557 73.728 
L 262.887468 72.981333 
L 263.318557 72.234667 
L 262.45638 72.234667 
L 262.025292 71.488 
L 262.45638 70.741333 
L 263.318557 70.741333 
L 262.887468 69.994667 
L 263.318557 69.248 
L 262.45638 69.248 
L 262.025292 68.501333 
L 261.594204 69.248 
L 260.732027 69.248 
L 260.300939 68.501333 
L 260.732027 67.754667 
L 259.869851 67.754667 
L 259.438763 67.008 
L 259.007675 67.754667 
L 258.145498 67.754667 
L 258.576586 68.501333 
L 258.145498 69.248 
L 257.283322 69.248 
L 256.852234 68.501333 
L 256.421145 69.248 
L 255.558969 69.248 
L 255.990057 69.994667 
L 255.558969 70.741333 
L 256.421145 70.741333 
L 256.852234 71.488 
L 256.421145 72.234667 
L 255.558969 72.234667 
L 255.990057 72.981333 
L 255.558969 73.728 
L 254.696793 73.728 
L 254.265704 72.981333 
L 253.834616 73.728 
L 252.97244 73.728 
L 252.541352 72.981333 
L 252.97244 72.234667 
L 252.110263 72.234667 
L 251.679175 71.488 
L 251.248087 72.234667 
L 250.385911 72.234667 
L 250.816999 72.981333 
L 250.385911 73.728 
L 249.523734 73.728 
L 249.092646 72.981333 
L 248.661558 73.728 
L 247.799381 73.728 
L 247.368293 72.981333 
L 247.799381 72.234667 
L 246.937205 72.234667 
L 246.506117 71.488 
L 246.937205 70.741333 
L 247.799381 70.741333 
L 247.368293 69.994667 
L 247.799381 69.248 
L 246.937205 69.248 
L 246.506117 68.501333 
L 246.075029 69.248 
L 245.212852 69.248 
L 244.781764 68.501333 
L 245.212852 67.754667 
L 244.350676 67.754667 
L 243.919588 67.008 
L 244.350676 66.261333 
L 245.212852 66.261333 
L 244.781764 65.514667 
L 245.212852 64.768 
L 246.075029 64.768 
L 246.506117 65.514667 
L 246.937205 64.768 
L 247.799381 64.768 
L 247.368293 64.021333 
L 247.799381 63.274667 
L 246.937205 63.274667 
L 246.506117 62.528 
L 246.937205 61.781333 
L 247.799381 61.781333 
L 247.368293 61.034667 
L 247.799381 60.288 
L 246.937205 60.288 
L 246.506117 59.541333 
L 246.075029 60.288 
L 245.212852 60.288 
L 244.781764 59.541333 
L 245.212852 58.794667 
L 244.350676 58.794667 
L 243.919588 58.048 
L 243.488499 58.794667 
L 242.626323 58.794667 
L 243.057411 59.541333 
L 242.626323 60.288 
L 241.764147 60.288 
L 241.333058 59.541333 
L 240.90197 60.288 
L 240.039794 60.288 
L 239.608706 59.541333 
L 240.039794 58.794667 
L 239.177617 58.794667 
L 238.746529 58.048 
L 239.177617 57.301333 
L 240.039794 57.301333 
L 239.608706 56.554667 
L 240.039794 55.808 
L 239.177617 55.808 
L 238.746529 55.061333 
L 238.315441 55.808 
L 237.453265 55.808 
L 237.022176 55.061333 
L 237.453265 54.314667 
L 236.591088 54.314667 
L 236.16 53.568 
L 235.728912 54.314667 
L 234.866735 54.314667 
L 235.297824 55.061333 
L 234.866735 55.808 
L 234.004559 55.808 
L 233.573471 55.061333 
L 233.142383 55.808 
L 232.280206 55.808 
L 232.711294 56.554667 
L 232.280206 57.301333 
L 233.142383 57.301333 
L 233.573471 58.048 
L 233.142383 58.794667 
L 232.280206 58.794667 
L 232.711294 59.541333 
L 232.280206 60.288 
L 231.41803 60.288 
L 230.986942 59.541333 
L 230.555853 60.288 
L 229.693677 60.288 
L 229.262589 59.541333 
L 229.693677 58.794667 
L 228.831501 58.794667 
L 228.400412 58.048 
L 227.969324 58.794667 
L 227.107148 58.794667 
L 227.538236 59.541333 
L 227.107148 60.288 
L 226.244971 60.288 
L 225.813883 59.541333 
L 225.382795 60.288 
L 224.520619 60.288 
L 224.951707 61.034667 
L 224.520619 61.781333 
L 225.382795 61.781333 
L 225.813883 62.528 
L 225.382795 63.274667 
L 224.520619 63.274667 
L 224.951707 64.021333 
L 224.520619 64.768 
L 225.382795 64.768 
L 225.813883 65.514667 
L 226.244971 64.768 
L 227.107148 64.768 
L 227.538236 65.514667 
L 227.107148 66.261333 
L 227.969324 66.261333 
L 228.400412 67.008 
L 227.969324 67.754667 
L 227.107148 67.754667 
L 227.538236 68.501333 
L 227.107148 69.248 
L 226.244971 69.248 
L 225.813883 68.501333 
L 225.382795 69.248 
L 224.520619 69.248 
L 224.951707 69.994667 
L 224.520619 70.741333 
L 225.382795 70.741333 
L 225.813883 71.488 
L 225.382795 72.234667 
L 224.520619 72.234667 
L 224.951707 72.981333 
L 224.520619 73.728 
L 223.658442 73.728 
L 223.227354 72.981333 
L 222.796266 73.728 
L 221.934089 73.728 
L 221.503001 72.981333 
L 221.934089 72.234667 
L 221.071913 72.234667 
L 220.640825 71.488 
L 220.209737 72.234667 
L 219.34756 72.234667 
L 219.778648 72.981333 
L 219.34756 73.728 
L 218.485384 73.728 
L 218.054296 72.981333 
L 217.623207 73.728 
L 216.761031 73.728 
L 216.329943 72.981333 
L 216.761031 72.234667 
L 215.898855 72.234667 
L 215.467766 71.488 
L 215.898855 70.741333 
L 216.761031 70.741333 
L 216.329943 69.994667 
L 216.761031 69.248 
L 215.898855 69.248 
L 215.467766 68.501333 
L 215.036678 69.248 
L 214.174502 69.248 
L 213.743414 68.501333 
L 214.174502 67.754667 
L 213.312325 67.754667 
L 212.881237 67.008 
L 212.450149 67.754667 
L 211.587973 67.754667 
L 212.019061 68.501333 
L 211.587973 69.248 
L 210.725796 69.248 
L 210.294708 68.501333 
L 209.86362 69.248 
L 209.001443 69.248 
L 209.432532 69.994667 
L 209.001443 70.741333 
L 209.86362 70.741333 
L 210.294708 71.488 
L 209.86362 72.234667 
L 209.001443 72.234667 
L 209.432532 72.981333 
L 209.001443 73.728 
L 208.139267 73.728 
L 207.708179 72.981333 
L 207.277091 73.728 
L 206.414914 73.728 
L 205.983826 72.981333 
L 206.414914 72.234667 
L 205.552738 72.234667 
L 205.12165 71.488 
L 204.690561 72.234667 
L 203.828385 72.234667 
L 204.259473 72.981333 
L 203.828385 73.728 
L 202.966209 73.728 
L 202.53512 72.981333 
L 202.104032 73.728 
L 201.241856 73.728 
L 201.672944 74.474667 
L 201.241856 75.221333 
L 202.104032 75.221333 
L 202.53512 75.968 
L 202.104032 76.714667 
L 201.241856 76.714667 
L 201.672944 77.461333 
L 201.241856 78.208 
L 202.104032 78.208 
L 202.53512 78.954667 
L 202.966209 78.208 
L 203.828385 78.208 
L 204.259473 78.954667 
L 203.828385 79.701333 
L 204.690561 79.701333 
L 205.12165 80.448 
L 204.690561 81.194667 
L 203.828385 81.194667 
L 204.259473 81.941333 
L 203.828385 82.688 
L 202.966209 82.688 
L 202.53512 81.941333 
L 202.104032 82.688 
L 201.241856 82.688 
L 201.672944 83.434667 
L 201.241856 84.181333 
L 202.104032 84.181333 
L 202.53512 84.928 
L 202.104032 85.674667 
L 201.241856 85.674667 
L 201.672944 86.421333 
L 201.241856 87.168 
L 202.104032 87.168 
L 202.53512 87.914667 
L 202.966209 87.168 
L 203.828385 87.168 
L 204.259473 87.914667 
L 203.828385 88.661333 
L 204.690561 88.661333 
L 205.12165 89.408 
L 205.552738 88.661333 
L 206.414914 88.661333 
L 205.983826 87.914667 
L 206.414914 87.168 
L 207.277091 87.168 
L 207.708179 87.914667 
L 208.139267 87.168 
L 209.001443 87.168 
L 209.432532 87.914667 
L 209.001443 88.661333 
L 209.86362 88.661333 
L 210.294708 89.408 
L 209.86362 90.154667 
L 209.001443 90.154667 
L 209.432532 90.901333 
L 209.001443 91.648 
L 209.86362 91.648 
L 210.294708 92.394667 
L 210.725796 91.648 
L 211.587973 91.648 
L 212.019061 92.394667 
L 211.587973 93.141333 
L 212.450149 93.141333 
L 212.881237 93.888 
L 212.450149 94.634667 
L 211.587973 94.634667 
L 212.019061 95.381333 
L 211.587973 96.128 
L 210.725796 96.128 
L 210.294708 95.381333 
L 209.86362 96.128 
L 209.001443 96.128 
L 209.432532 96.874667 
L 209.001443 97.621333 
L 209.86362 97.621333 
L 210.294708 98.368 
L 209.86362 99.114667 
L 209.001443 99.114667 
L 209.432532 99.861333 
L 209.001443 100.608 
L 208.139267 100.608 
L 207.708179 99.861333 
L 207.277091 100.608 
L 206.414914 100.608 
L 205.983826 99.861333 
L 206.414914 99.114667 
L 205.552738 99.114667 
L 205.12165 98.368 
L 204.690561 99.114667 
L 203.828385 99.114667 
L 204.259473 99.861333 
L 203.828385 100.608 
L 202.966209 100.608 
L 202.53512 99.861333 
L 202.104032 100.608 
L 201.241856 100.608 
L 201.672944 101.354667 
L 201.241856 102.101333 
L 202.104032 102.101333 
L 202.53512 102.848 
L 202.104032 103.594667 
L 201.241856 103.594667 
L 201.672944 104.341333 
L 201.241856 105.088 
L 202.104032 105.088 
L 202.53512 105.834667 
L 202.966209 105.088 
L 203.828385 105.088 
L 204.259473 105.834667 
L 203.828385 106.581333 
L 204.690561 106.581333 
L 205.12165 107.328 
L 204.690561 108.074667 
L 203.828385 108.074667 
L 204.259473 108.821333 
L 203.828385 109.568 
L 202.966209 109.568 
L 202.53512 108.821333 
L 202.104032 109.568 
L 201.241856 109.568 
L 201.672944 110.314667 
L 201.241856 111.061333 
L 202.104032 111.061333 
L 202.53512 111.808 
L 202.104032 112.554667 
L 201.241856 112.554667 
L 201.672944 113.301333 
L 201.241856 114.048 
L 200.379679 114.048 
L 199.948591 113.301333 
L 199.517503 114.048 
L 198.655327 114.048 
L 198.224238 113.301333 
L 198.655327 112.554667 
L 197.79315 112.554667 
L 197.362062 111.808 
L 196.930974 112.554667 
L 196.068797 112.554667 
L 196.499886 113.301333 
L 196.068797 114.048 
L 195.206621 114.048 
L 194.775533 113.301333 
L 194.344445 114.048 
L 193.482268 114.048 
L 193.05118 113.301333 
L 193.482268 112.554667 
L 192.620092 112.554667 
L 192.189003 111.808 
L 192.620092 111.061333 
L 193.482268 111.061333 
L 193.05118 110.314667 
L 193.482268 109.568 
L 192.620092 109.568 
L 192.189003 108.821333 
L 191.757915 109.568 
L 190.895739 109.568 
L 190.464651 108.821333 
L 190.895739 108.074667 
L 190.033562 108.074667 
L 189.602474 107.328 
L 189.171386 108.074667 
L 188.30921 108.074667 
L 188.740298 108.821333 
L 188.30921 109.568 
L 187.447033 109.568 
L 187.015945 108.821333 
L 186.584857 109.568 
L 185.72268 109.568 
L 186.153769 110.314667 
L 185.72268 111.061333 
L 186.584857 111.061333 
L 187.015945 111.808 
L 186.584857 112.554667 
L 185.72268 112.554667 
L 186.153769 113.301333 
L 185.72268 114.048 
L 184.860504 114.048 
L 184.429416 113.301333 
L 183.998328 114.048 
L 183.136151 114.048 
L 182.705063 113.301333 
L 183.136151 112.554667 
L 182.273975 112.554667 
L 181.842887 111.808 
L 181.411798 112.554667 
L 180.549622 112.554667 
L 180.98071 113.301333 
L 180.549622 114.048 
L 179.687446 114.048 
L 179.256357 113.301333 
L 178.825269 114.048 
L 177.963093 114.048 
L 177.532005 113.301333 
L 177.963093 112.554667 
L 177.100916 112.554667 
L 176.669828 111.808 
L 177.100916 111.061333 
L 177.963093 111.061333 
L 177.532005 110.314667 
L 177.963093 109.568 
L 177.100916 109.568 
L 176.669828 108.821333 
L 176.23874 109.568 
L 175.376564 109.568 
L 174.945475 108.821333 
L 175.376564 108.074667 
L 174.514387 108.074667 
L 174.083299 107.328 
L 174.514387 106.581333 
L 175.376564 106.581333 
L 174.945475 105.834667 
L 175.376564 105.088 
L 176.23874 105.088 
L 176.669828 105.834667 
L 177.100916 105.088 
L 177.963093 105.088 
L 177.532005 104.341333 
L 177.963093 103.594667 
L 177.100916 103.594667 
L 176.669828 102.848 
L 177.100916 102.101333 
L 177.963093 102.101333 
L 177.532005 101.354667 
L 177.963093 100.608 
L 177.100916 100.608 
L 176.669828 99.861333 
L 176.23874 100.608 
L 175.376564 100.608 
L 174.945475 99.861333 
L 175.376564 99.114667 
L 174.514387 99.114667 
L 174.083299 98.368 
L 173.652211 99.114667 
L 172.790034 99.114667 
L 173.221123 99.861333 
L 172.790034 100.608 
L 171.927858 100.608 
L 171.49677 99.861333 
L 171.065682 100.608 
L 170.203505 100.608 
L 169.772417 99.861333 
L 170.203505 99.114667 
L 169.341329 99.114667 
L 168.910241 98.368 
L 169.341329 97.621333 
L 170.203505 97.621333 
L 169.772417 96.874667 
L 170.203505 96.128 
L 169.341329 96.128 
L 168.910241 95.381333 
L 168.479152 96.128 
L 167.616976 96.128 
L 167.185888 95.381333 
L 167.616976 94.634667 
L 166.7548 94.634667 
L 166.323711 93.888 
L 165.892623 94.634667 
L 165.030447 94.634667 
L 165.461535 95.381333 
L 165.030447 96.128 
L 164.16827 96.128 
L 163.737182 95.381333 
L 163.306094 96.128 
L 162.443918 96.128 
L 162.875006 96.874667 
L 162.443918 97.621333 
L 163.306094 97.621333 
L 163.737182 98.368 
L 163.306094 99.114667 
L 162.443918 99.114667 
L 162.875006 99.861333 
L 162.443918 100.608 
L 161.581741 100.608 
L 161.150653 99.861333 
L 160.719565 100.608 
L 159.857388 100.608 
L 159.4263 99.861333 
L 159.857388 99.114667 
L 158.995212 99.114667 
L 158.564124 98.368 
L 158.133036 99.114667 
L 157.270859 99.114667 
L 157.701947 99.861333 
L 157.270859 100.608 
L 156.408683 100.608 
L 155.977595 99.861333 
L 155.546506 100.608 
L 154.68433 100.608 
L 155.115418 101.354667 
L 154.68433 102.101333 
L 155.546506 102.101333 
L 155.977595 102.848 
L 155.546506 103.594667 
L 154.68433 103.594667 
L 155.115418 104.341333 
L 154.68433 105.088 
L 155.546506 105.088 
L 155.977595 105.834667 
L 156.408683 105.088 
L 157.270859 105.088 
L 157.701947 105.834667 
L 157.270859 106.581333 
L 158.133036 106.581333 
L 158.564124 107.328 
L 158.133036 108.074667 
L 157.270859 108.074667 
L 157.701947 108.821333 
L 157.270859 109.568 
L 156.408683 109.568 
L 155.977595 108.821333 
L 155.546506 109.568 
L 154.68433 109.568 
L 155.115418 110.314667 
L 154.68433 111.061333 
L 155.546506 111.061333 
L 155.977595 111.808 
L 155.546506 112.554667 
L 154.68433 112.554667 
L 155.115418 113.301333 
L 154.68433 114.048 
L 153.822154 114.048 
L 153.391065 113.301333 
L 152.959977 114.048 
L 152.097801 114.048 
L 151.666713 113.301333 
L 152.097801 112.554667 
L 151.235624 112.554667 
L 150.804536 111.808 
L 150.373448 112.554667 
L 149.511272 112.554667 
L 149.94236 113.301333 
L 149.511272 114.048 
L 148.649095 114.048 
L 148.218007 113.301333 
L 147.786919 114.048 
L 146.924742 114.048 
L 146.493654 113.301333 
L 146.924742 112.554667 
L 146.062566 112.554667 
L 145.631478 111.808 
L 146.062566 111.061333 
L 146.924742 111.061333 
L 146.493654 110.314667 
L 146.924742 109.568 
L 146.062566 109.568 
L 145.631478 108.821333 
L 145.20039 109.568 
L 144.338213 109.568 
L 143.907125 108.821333 
L 144.338213 108.074667 
L 143.476037 108.074667 
L 143.044949 107.328 
L 142.61386 108.074667 
L 141.751684 108.074667 
L 142.182772 108.821333 
L 141.751684 109.568 
L 140.889508 109.568 
L 140.458419 108.821333 
L 140.027331 109.568 
L 139.165155 109.568 
L 139.596243 110.314667 
L 139.165155 111.061333 
L 140.027331 111.061333 
L 140.458419 111.808 
L 140.027331 112.554667 
L 139.165155 112.554667 
L 139.596243 113.301333 
L 139.165155 114.048 
L 138.302978 114.048 
L 137.87189 113.301333 
L 137.440802 114.048 
L 136.578626 114.048 
L 136.147537 113.301333 
L 136.578626 112.554667 
L 135.716449 112.554667 
L 135.285361 111.808 
L 134.854273 112.554667 
L 133.992096 112.554667 
L 134.423185 113.301333 
L 133.992096 114.048 
L 133.12992 114.048 
L 132.698832 113.301333 
L 132.267744 114.048 
L 131.405567 114.048 
L 131.836655 114.794667 
L 131.405567 115.541333 
L 132.267744 115.541333 
L 132.698832 116.288 
L 132.267744 117.034667 
L 131.405567 117.034667 
L 131.836655 117.781333 
L 131.405567 118.528 
L 132.267744 118.528 
L 132.698832 119.274667 
L 133.12992 118.528 
L 133.992096 118.528 
L 134.423185 119.274667 
L 133.992096 120.021333 
L 134.854273 120.021333 
L 135.285361 120.768 
L 134.854273 121.514667 
L 133.992096 121.514667 
L 134.423185 122.261333 
L 133.992096 123.008 
L 133.12992 123.008 
L 132.698832 122.261333 
L 132.267744 123.008 
L 131.405567 123.008 
L 131.836655 123.754667 
L 131.405567 124.501333 
L 132.267744 124.501333 
L 132.698832 125.248 
L 132.267744 125.994667 
L 131.405567 125.994667 
L 131.836655 126.741333 
L 131.405567 127.488 
L 132.267744 127.488 
L 132.698832 128.234667 
L 133.12992 127.488 
L 133.992096 127.488 
L 134.423185 128.234667 
L 133.992096 128.981333 
L 134.854273 128.981333 
L 135.285361 129.728 
L 135.716449 128.981333 
L 136.578626 128.981333 
L 136.147537 128.234667 
L 136.578626 127.488 
L 137.440802 127.488 
L 137.87189 128.234667 
L 138.302978 127.488 
L 139.165155 127.488 
L 139.596243 128.234667 
L 139.165155 128.981333 
L 140.027331 128.981333 
L 140.458419 129.728 
L 140.027331 130.474667 
L 139.165155 130.474667 
L 139.596243 131.221333 
L 139.165155 131.968 
L 140.027331 131.968 
L 140.458419 132.714667 
L 140.889508 131.968 
L 141.751684 131.968 
L 142.182772 132.714667 
L 141.751684 133.461333 
L 142.61386 133.461333 
L 143.044949 134.208 
L 142.61386 134.954667 
L 141.751684 134.954667 
L 142.182772 135.701333 
L 141.751684 136.448 
L 140.889508 136.448 
L 140.458419 135.701333 
L 140.027331 136.448 
L 139.165155 136.448 
L 139.596243 137.194667 
L 139.165155 137.941333 
L 140.027331 137.941333 
L 140.458419 138.688 
L 140.027331 139.434667 
L 139.165155 139.434667 
L 139.596243 140.181333 
L 139.165155 140.928 
L 138.302978 140.928 
L 137.87189 140.181333 
L 137.440802 140.928 
L 136.578626 140.928 
L 136.147537 140.181333 
L 136.578626 139.434667 
L 135.716449 139.434667 
L 135.285361 138.688 
L 134.854273 139.434667 
L 133.992096 139.434667 
L 134.423185 140.181333 
L 133.992096 140.928 
L 133.12992 140.928 
L 132.698832 140.181333 
L 132.267744 140.928 
L 131.405567 140.928 
L 131.836655 141.674667 
L 131.405567 142.421333 
L 132.267744 142.421333 
L 132.698832 143.168 
L 132.267744 143.914667 
L 131.405567 143.914667 
L 131.836655 144.661333 
L 131.405567 145.408 
L 132.267744 145.408 
L 132.698832 146.154667 
L 133.12992 145.408 
L 133.992096 145.408 
L 134.423185 146.154667 
L 133.992096 146.901333 
L 134.854273 146.901333 
L 135.285361 147.648 
L 134.854273 148.394667 
L 133.992096 148.394667 
L 134.423185 149.141333 
L 133.992096 149.888 
L 133.12992 149.888 
L 132.698832 149.141333 
L 132.267744 149.888 
L 131.405567 149.888 
L 131.836655 150.634667 
L 131.405567 151.381333 
L 132.267744 151.381333 
L 132.698832 152.128 
L 132.267744 152.874667 
L 131.405567 152.874667 
L 131.836655 153.621333 
L 131.405567 154.368 
L 132.267744 154.368 
L 132.698832 155.114667 
L 133.12992 154.368 
L 133.992096 154.368 
L 134.423185 155.114667 
L 133.992096 155.861333 
L 134.854273 155.861333 
L 135.285361 156.608 
L 135.716449 155.861333 
L 136.578626 155.861333 
L 136.147537 155.114667 
L 136.578626 154.368 
L 137.440802 154.368 
L 137.87189 155.114667 
L 138.302978 154.368 
L 139.165155 154.368 
L 139.596243 155.114667 
L 139.165155 155.861333 
L 140.027331 155.861333 
L 140.458419 156.608 
L 140.027331 157.354667 
L 139.165155 157.354667 
L 139.596243 158.101333 
L 139.165155 158.848 
L 140.027331 158.848 
L 140.458419 159.594667 
L 140.889508 158.848 
L 141.751684 158.848 
L 142.182772 159.594667 
L 141.751684 160.341333 
L 142.61386 160.341333 
L 143.044949 161.088 
L 143.476037 160.341333 
L 144.338213 160.341333 
L 143.907125 159.594667 
L 144.338213 158.848 
L 145.20039 158.848 
L 145.631478 159.594667 
L 146.062566 158.848 
L 146.924742 158.848 
L 146.493654 158.101333 
L 146.924742 157.354667 
L 146.062566 157.354667 
L 145.631478 156.608 
L 146.062566 155.861333 
L 146.924742 155.861333 
L 146.493654 155.114667 
L 146.924742 154.368 
L 147.786919 154.368 
L 148.218007 155.114667 
L 148.649095 154.368 
L 149.511272 154.368 
L 149.94236 155.114667 
L 149.511272 155.861333 
L 150.373448 155.861333 
L 150.804536 156.608 
L 151.235624 155.861333 
L 152.097801 155.861333 
L 151.666713 155.114667 
L 152.097801 154.368 
L 152.959977 154.368 
L 153.391065 155.114667 
L 153.822154 154.368 
L 154.68433 154.368 
L 155.115418 155.114667 
L 154.68433 155.861333 
L 155.546506 155.861333 
L 155.977595 156.608 
L 155.546506 157.354667 
L 154.68433 157.354667 
L 155.115418 158.101333 
L 154.68433 158.848 
L 155.546506 158.848 
L 155.977595 159.594667 
L 156.408683 158.848 
L 157.270859 158.848 
L 157.701947 159.594667 
L 157.270859 160.341333 
L 158.133036 160.341333 
L 158.564124 161.088 
L 158.133036 161.834667 
L 157.270859 161.834667 
L 157.701947 162.581333 
L 157.270859 163.328 
L 156.408683 163.328 
L 155.977595 162.581333 
L 155.546506 163.328 
L 154.68433 163.328 
L 155.115418 164.074667 
L 154.68433 164.821333 
L 155.546506 164.821333 
L 155.977595 165.568 
L 155.546506 166.314667 
L 154.68433 166.314667 
L 155.115418 167.061333 
L 154.68433 167.808 
L 155.546506 167.808 
L 155.977595 168.554667 
L 156.408683 167.808 
L 157.270859 167.808 
L 157.701947 168.554667 
L 157.270859 169.301333 
L 158.133036 169.301333 
L 158.564124 170.048 
L 158.995212 169.301333 
L 159.857388 169.301333 
L 159.4263 168.554667 
L 159.857388 167.808 
L 160.719565 167.808 
L 161.150653 168.554667 
L 161.581741 167.808 
L 162.443918 167.808 
L 162.875006 168.554667 
L 162.443918 169.301333 
L 163.306094 169.301333 
L 163.737182 170.048 
L 163.306094 170.794667 
L 162.443918 170.794667 
L 162.875006 171.541333 
L 162.443918 172.288 
L 163.306094 172.288 
L 163.737182 173.034667 
L 164.16827 172.288 
L 165.030447 172.288 
L 165.461535 173.034667 
L 165.030447 173.781333 
L 165.892623 173.781333 
L 166.323711 174.528 
L 165.892623 175.274667 
L 165.030447 175.274667 
L 165.461535 176.021333 
L 165.030447 176.768 
L 164.16827 176.768 
L 163.737182 176.021333 
L 163.306094 176.768 
L 162.443918 176.768 
L 162.875006 177.514667 
L 162.443918 178.261333 
L 163.306094 178.261333 
L 163.737182 179.008 
L 163.306094 179.754667 
L 162.443918 179.754667 
L 162.875006 180.501333 
L 162.443918 181.248 
L 161.581741 181.248 
L 161.150653 180.501333 
L 160.719565 181.248 
L 159.857388 181.248 
L 159.4263 180.501333 
L 159.857388 179.754667 
L 158.995212 179.754667 
L 158.564124 179.008 
L 158.133036 179.754667 
L 157.270859 179.754667 
L 157.701947 180.501333 
L 157.270859 181.248 
L 156.408683 181.248 
L 155.977595 180.501333 
L 155.546506 181.248 
L 154.68433 181.248 
L 155.115418 181.994667 
L 154.68433 182.741333 
L 155.546506 182.741333 
L 155.977595 183.488 
L 155.546506 184.234667 
L 154.68433 184.234667 
L 155.115418 184.981333 
L 154.68433 185.728 
L 155.546506 185.728 
L 155.977595 186.474667 
L 156.408683 185.728 
L 157.270859 185.728 
L 157.701947 186.474667 
L 157.270859 187.221333 
L 158.133036 187.221333 
L 158.564124 187.968 
L 158.133036 188.714667 
L 157.270859 188.714667 
L 157.701947 189.461333 
L 157.270859 190.208 
L 156.408683 190.208 
L 155.977595 189.461333 
L 155.546506 190.208 
L 154.68433 190.208 
L 155.115418 190.954667 
L 154.68433 191.701333 
L 155.546506 191.701333 
L 155.977595 192.448 
L 155.546506 193.194667 
L 154.68433 193.194667 
L 155.115418 193.941333 
L 154.68433 194.688 
L 153.822154 194.688 
L 153.391065 193.941333 
L 152.959977 194.688 
L 152.097801 194.688 
L 151.666713 193.941333 
L 152.097801 193.194667 
L 151.235624 193.194667 
L 150.804536 192.448 
L 150.373448 193.194667 
L 149.511272 193.194667 
L 149.94236 193.941333 
L 149.511272 194.688 
L 148.649095 194.688 
L 148.218007 193.941333 
L 147.786919 194.688 
L 146.924742 194.688 
L 146.493654 193.941333 
L 146.924742 193.194667 
L 146.062566 193.194667 
L 145.631478 192.448 
L 146.062566 191.701333 
L 146.924742 191.701333 
L 146.493654 190.954667 
L 146.924742 190.208 
L 146.062566 190.208 
L 145.631478 189.461333 
L 145.20039 190.208 
L 144.338213 190.208 
L 143.907125 189.461333 
L 144.338213 188.714667 
L 143.476037 188.714667 
L 143.044949 187.968 
L 142.61386 188.714667 
L 141.751684 188.714667 
L 142.182772 189.461333 
L 141.751684 190.208 
L 140.889508 190.208 
L 140.458419 189.461333 
L 140.027331 190.208 
L 139.165155 190.208 
L 139.596243 190.954667 
L 139.165155 191.701333 
L 140.027331 191.701333 
L 140.458419 192.448 
L 140.027331 193.194667 
L 139.165155 193.194667 
L 139.596243 193.941333 
L 139.165155 194.688 
L 138.302978 194.688 
L 137.87189 193.941333 
L 137.440802 194.688 
L 136.578626 194.688 
L 136.147537 193.941333 
L 136.578626 193.194667 
L 135.716449 193.194667 
L 135.285361 192.448 
L 134.854273 193.194667 
L 133.992096 193.194667 
L 134.423185 193.941333 
L 133.992096 194.688 
L 133.12992 194.688 
L 132.698832 193.941333 
L 132.267744 194.688 
L 131.405567 194.688 
L 131.836655 195.434667 
L 131.405567 196.181333 
L 132.267744 196.181333 
L 132.698832 196.928 
L 132.267744 197.674667 
L 131.405567 197.674667 
L 131.836655 198.421333 
L 131.405567 199.168 
L 132.267744 199.168 
L 132.698832 199.914667 
L 133.12992 199.168 
L 133.992096 199.168 
L 134.423185 199.914667 
L 133.992096 200.661333 
L 134.854273 200.661333 
L 135.285361 201.408 
L 134.854273 202.154667 
L 133.992096 202.154667 
L 134.423185 202.901333 
L 133.992096 203.648 
L 133.12992 203.648 
L 132.698832 202.901333 
L 132.267744 203.648 
L 131.405567 203.648 
L 131.836655 204.394667 
L 131.405567 205.141333 
L 132.267744 205.141333 
L 132.698832 205.888 
L 132.267744 206.634667 
L 131.405567 206.634667 
L 131.836655 207.381333 
L 131.405567 208.128 
L 132.267744 208.128 
L 132.698832 208.874667 
L 133.12992 208.128 
L 133.992096 208.128 
L 134.423185 208.874667 
L 133.992096 209.621333 
L 134.854273 209.621333 
L 135.285361 210.368 
L 135.716449 209.621333 
L 136.578626 209.621333 
L 136.147537 208.874667 
L 136.578626 208.128 
L 137.440802 208.128 
L 137.87189 208.874667 
L 138.302978 208.128 
L 139.165155 208.128 
L 139.596243 208.874667 
L 139.165155 209.621333 
L 140.027331 209.621333 
L 140.458419 210.368 
L 140.027331 211.114667 
L 139.165155 211.114667 
L 139.596243 211.861333 
L 139.165155 212.608 
L 140.027331 212.608 
L 140.458419 213.354667 
L 140.889508 212.608 
L 141.751684 212.608 
L 142.182772 213.354667 
L 141.751684 214.101333 
L 142.61386 214.101333 
L 143.044949 214.848 
L 142.61386 215.594667 
L 141.751684 215.594667 
L 142.182772 216.341333 
L 141.751684 217.088 
L 140.889508 217.088 
L 140.458419 216.341333 
L 140.027331 217.088 
L 139.165155 217.088 
L 139.596243 217.834667 
L 139.165155 218.581333 
L 140.027331 218.581333 
L 140.458419 219.328 
L 140.027331 220.074667 
L 139.165155 220.074667 
L 139.596243 220.821333 
L 139.165155 221.568 
L 138.302978 221.568 
L 137.87189 220.821333 
L 137.440802 221.568 
L 136.578626 221.568 
L 136.147537 220.821333 
L 136.578626 220.074667 
L 135.716449 220.074667 
L 135.285361 219.328 
L 134.854273 220.074667 
L 133.992096 220.074667 
L 134.423185 220.821333 
L 133.992096 221.568 
L 133.12992 221.568 
L 132.698832 220.821333 
L 132.267744 221.568 
L 131.405567 221.568 
L 131.836655 222.314667 
L 131.405567 223.061333 
L 132.267744 223.061333 
L 132.698832 223.808 
L 132.267744 224.554667 
L 131.405567 224.554667 
L 131.836655 225.301333 
L 131.405567 226.048 
L 132.267744 226.048 
L 132.698832 226.794667 
L 133.12992 226.048 
L 133.992096 226.048 
L 134.423185 226.794667 
L 133.992096 227.541333 
L 134.854273 227.541333 
L 135.285361 228.288 
L 134.854273 229.034667 
L 133.992096 229.034667 
L 134.423185 229.781333 
L 133.992096 230.528 
L 133.12992 230.528 
L 132.698832 229.781333 
L 132.267744 230.528 
L 131.405567 230.528 
L 131.836655 231.274667 
L 131.405567 232.021333 
L 132.267744 232.021333 
L 132.698832 232.768 
L 132.267744 233.514667 
L 131.405567 233.514667 
L 131.836655 234.261333 
L 131.405567 235.008 
L 131.405567 235.008 
" style="fill:none;stroke:#1f77b4;stroke-linecap:square;stroke-width:1.5;"/>
   </g>
   <g id="patch_3">
    <path d="M 120.930124 307.584 
L 120.930124 41.472 
" style="fill:none;stroke:#000000;stroke-linecap:square;stroke-linejoin:miter;stroke-width:0.8;"/>
   </g>
   <g id="patch_4">
    <path d="M 351.389876 307.584 
L 351.389876 41.472 
" style="fill:none;stroke:#000000;stroke-linecap:square;stroke-linejoin:miter;stroke-width:0.8;"/>
   </g>
   <g id="patch_5">
    <path d="M 120.930124 307.584 
L 351.389876 307.584 
" style="fill:none;stroke:#000000;stroke-linecap:square;stroke-linejoin:miter;stroke-width:0.8;"/>
   </g>
   <g id="patch_6">
    <path d="M 120.930124 41.472 
L 351.389876 41.472 
" style="fill:none;stroke:#000000;stroke-linecap:square;stroke-linejoin:miter;stroke-width:0.8;"/>
   </g>
  </g>
 </g>
 <defs>
  <clipPath id="p22d9ff12e3">
   <rect height="266.112" width="230.459752" x="120.930124" y="41.472"/>
  </clipPath>
 </defs>
</svg>
