<?xml version="1.0" encoding="utf-8" standalone="no"?>
<!DOCTYPE svg PUBLIC "-//W3C//DTD SVG 1.1//EN"
  "http://www.w3.org/Graphics/SVG/1.1/DTD/svg11.dtd">
<!-- Created with matplotlib (https://matplotlib.org/) -->
<svg height="345.6pt" version="1.1" viewBox="0 0 460.8 345.6" width="460.8pt" xmlns="http://www.w3.org/2000/svg" xmlns:xlink="http://www.w3.org/1999/xlink">
 <defs>
  <style type="text/css">
*{stroke-linecap:butt;stroke-linejoin:round;}
  </style>
 </defs>
 <g id="figure_1">
  <g id="patch_1">
   <path d="M 0 345.6 
L 460.8 345.6 
L 460.8 0 
L 0 0 
z
" style="fill:#ffffff;"/>
  </g>
  <g id="axes_1">
   <g id="patch_2">
    <path d="M 120.930124 307.584 
L 351.389876 307.584 
L 351.389876 41.472 
L 120.930124 41.472 
z
" style="fill:#ffffff;"/>
   </g>
   <g id="matplotlib.axis_1">
    <g id="xtick_1">
     <g id="line2d_1">
      <defs>
       <path d="M 0 0 
L 0 3.5 
" id="mb09c3fc339" style="stroke:#000000;stroke-width:0.8;"/>
      </defs>
      <g>
       <use style="stroke:#000000;stroke-width:0.8;" x="131.405567" xlink:href="#mb09c3fc339" y="307.584"/>
      </g>
     </g>
     <g id="text_1">
      <!-- 0.0 -->
      <defs>
       <path d="M 31.78125 66.40625 
Q 24.171875 66.40625 20.328125 58.90625 
Q 16.5 51.421875 16.5 36.375 
Q 16.5 21.390625 20.328125 13.890625 
Q 24.171875 6.390625 31.78125 6.390625 
Q 39.453125 6.390625 43.28125 13.890625 
Q 47.125 21.390625 47.125 36.375 
Q 47.125 51.421875 43.28125 58.90625 
Q 39.453125 66.40625 31.78125 66.40625 
z
M 31.78125 74.21875 
Q 44.046875 74.21875 50.515625 64.515625 
Q 56.984375 54.828125 56.984375 36.375 
Q 56.984375 17.96875 50.515625 8.265625 
Q 44.046875 -1.421875 31.78125 -1.421875 
Q 19.53125 -1.421875 13.0625 8.265625 
Q 6.59375 17.96875 6.59375 36.375 
Q 6.59375 54.828125 13.0625 64.515625 
Q 19.53125 74.21875 31.78125 74.21875 
z
" id="DejaVuSans-48"/>
       <path d="M 10.6875 12.40625 
L 21 12.40625 
L 21 0 
L 10.6875 0 
z
" id="DejaVuSans-46"/>
      </defs>
      <g transform="translate(123.454005 322.182437)scale(0.1 -0.1)">
       <use xlink:href="#DejaVuSans-48"/>
       <use x="63.623047" xlink:href="#DejaVuSans-46"/>
       <use x="95.410156" xlink:href="#DejaVuSans-48"/>
      </g>
     </g>
    </g>
    <g id="xtick_2">
     <g id="line2d_2">
      <g>
       <use style="stroke:#000000;stroke-width:0.8;" x="173.30734" xlink:href="#mb09c3fc339" y="307.584"/>
      </g>
     </g>
     <g id="text_2">
      <!-- 0.2 -->
      <defs>
       <path d="M 19.1875 8.296875 
L 53.609375 8.296875 
L 53.609375 0 
L 7.328125 0 
L 7.328125 8.296875 
Q 12.9375 14.109375 22.625 23.890625 
Q 32.328125 33.6875 34.8125 36.53125 
Q 39.546875 41.84375 41.421875 45.53125 
Q 43.3125 49.21875 43.3125 52.78125 
Q 43.3125 58.59375 39.234375 62.25 
Q 35.15625 65.921875 28.609375 65.921875 
Q 23.96875 65.921875 18.8125 64.3125 
Q 13.671875 62.703125 7.8125 59.421875 
L 7.8125 69.390625 
Q 13.765625 71.78125 18.9375 73 
Q 24.125 74.21875 28.421875 74.21875 
Q 39.75 74.21875 46.484375 68.546875 
Q 53.21875 62.890625 53.21875 53.421875 
Q 53.21875 48.921875 51.53125 44.890625 
Q 49.859375 40.875 45.40625 35.40625 
Q 44.1875 33.984375 37.640625 27.21875 
Q 31.109375 20.453125 19.1875 8.296875 
z
" id="DejaVuSans-50"/>
      </defs>
      <g transform="translate(165.355778 322.182437)scale(0.1 -0.1)">
       <use xlink:href="#DejaVuSans-48"/>
       <use x="63.623047" xlink:href="#DejaVuSans-46"/>
       <use x="95.410156" xlink:href="#DejaVuSans-50"/>
      </g>
     </g>
    </g>
    <g id="xtick_3">
     <g id="line2d_3">
      <g>
       <use style="stroke:#000000;stroke-width:0.8;" x="215.209113" xlink:href="#mb09c3fc339" y="307.584"/>
      </g>
     </g>
     <g id="text_3">
      <!-- 0.4 -->
      <defs>
       <path d="M 37.796875 64.3125 
L 12.890625 25.390625 
L 37.796875 25.390625 
z
M 35.203125 72.90625 
L 47.609375 72.90625 
L 47.609375 25.390625 
L 58.015625 25.390625 
L 58.015625 17.1875 
L 47.609375 17.1875 
L 47.609375 0 
L 37.796875 0 
L 37.796875 17.1875 
L 4.890625 17.1875 
L 4.890625 26.703125 
z
" id="DejaVuSans-52"/>
      </defs>
      <g transform="translate(207.257551 322.182437)scale(0.1 -0.1)">
       <use xlink:href="#DejaVuSans-48"/>
       <use x="63.623047" xlink:href="#DejaVuSans-46"/>
       <use x="95.410156" xlink:href="#DejaVuSans-52"/>
      </g>
     </g>
    </g>
    <g id="xtick_4">
     <g id="line2d_4">
      <g>
       <use style="stroke:#000000;stroke-width:0.8;" x="257.110887" xlink:href="#mb09c3fc339" y="307.584"/>
      </g>
     </g>
     <g id="text_4">
      <!-- 0.6 -->
      <defs>
       <path d="M 33.015625 40.375 
Q 26.375 40.375 22.484375 35.828125 
Q 18.609375 31.296875 18.609375 23.390625 
Q 18.609375 15.53125 22.484375 10.953125 
Q 26.375 6.390625 33.015625 6.390625 
Q 39.65625 6.390625 43.53125 10.953125 
Q 47.40625 15.53125 47.40625 23.390625 
Q 47.40625 31.296875 43.53125 35.828125 
Q 39.65625 40.375 33.015625 40.375 
z
M 52.59375 71.296875 
L 52.59375 62.3125 
Q 48.875 64.0625 45.09375 64.984375 
Q 41.3125 65.921875 37.59375 65.921875 
Q 27.828125 65.921875 22.671875 59.328125 
Q 17.53125 52.734375 16.796875 39.40625 
Q 19.671875 43.65625 24.015625 45.921875 
Q 28.375 48.1875 33.59375 48.1875 
Q 44.578125 48.1875 50.953125 41.515625 
Q 57.328125 34.859375 57.328125 23.390625 
Q 57.328125 12.15625 50.6875 5.359375 
Q 44.046875 -1.421875 33.015625 -1.421875 
Q 20.359375 -1.421875 13.671875 8.265625 
Q 6.984375 17.96875 6.984375 36.375 
Q 6.984375 53.65625 15.1875 63.9375 
Q 23.390625 74.21875 37.203125 74.21875 
Q 40.921875 74.21875 44.703125 73.484375 
Q 48.484375 72.75 52.59375 71.296875 
z
" id="DejaVuSans-54"/>
      </defs>
      <g transform="translate(249.159324 322.182437)scale(0.1 -0.1)">
       <use xlink:href="#DejaVuSans-48"/>
       <use x="63.623047" xlink:href="#DejaVuSans-46"/>
       <use x="95.410156" xlink:href="#DejaVuSans-54"/>
      </g>
     </g>
    </g>
    <g id="xtick_5">
     <g id="line2d_5">
      <g>
       <use style="stroke:#000000;stroke-width:0.8;" x="299.01266" xlink:href="#mb09c3fc339" y="307.584"/>
      </g>
     </g>
     <g id="text_5">
      <!-- 0.8 -->
      <defs>
       <path d="M 31.78125 34.625 
Q 24.75 34.625 20.71875 30.859375 
Q 16.703125 27.09375 16.703125 20.515625 
Q 16.703125 13.921875 20.71875 10.15625 
Q 24.75 6.390625 31.78125 6.390625 
Q 38.8125 6.390625 42.859375 10.171875 
Q 46.921875 13.96875 46.921875 20.515625 
Q 46.921875 27.09375 42.890625 30.859375 
Q 38.875 34.625 31.78125 34.625 
z
M 21.921875 38.8125 
Q 15.578125 40.375 12.03125 44.71875 
Q 8.5 49.078125 8.5 55.328125 
Q 8.5 64.0625 14.71875 69.140625 
Q 20.953125 74.21875 31.78125 74.21875 
Q 42.671875 74.21875 48.875 69.140625 
Q 55.078125 64.0625 55.078125 55.328125 
Q 55.078125 49.078125 51.53125 44.71875 
Q 48 40.375 41.703125 38.8125 
Q 48.828125 37.15625 52.796875 32.3125 
Q 56.78125 27.484375 56.78125 20.515625 
Q 56.78125 9.90625 50.3125 4.234375 
Q 43.84375 -1.421875 31.78125 -1.421875 
Q 19.734375 -1.421875 13.25 4.234375 
Q 6.78125 9.90625 6.78125 20.515625 
Q 6.78125 27.484375 10.78125 32.3125 
Q 14.796875 37.15625 21.921875 38.8125 
z
M 18.3125 54.390625 
Q 18.3125 48.734375 21.84375 45.5625 
Q 25.390625 42.390625 31.78125 42.390625 
Q 38.140625 42.390625 41.71875 45.5625 
Q 45.3125 48.734375 45.3125 54.390625 
Q 45.3125 60.0625 41.71875 63.234375 
Q 38.140625 66.40625 31.78125 66.40625 
Q 25.390625 66.40625 21.84375 63.234375 
Q 18.3125 60.0625 18.3125 54.390625 
z
" id="DejaVuSans-56"/>
      </defs>
      <g transform="translate(291.061097 322.182437)scale(0.1 -0.1)">
       <use xlink:href="#DejaVuSans-48"/>
       <use x="63.623047" xlink:href="#DejaVuSans-46"/>
       <use x="95.410156" xlink:href="#DejaVuSans-56"/>
      </g>
     </g>
    </g>
    <g id="xtick_6">
     <g id="line2d_6">
      <g>
       <use style="stroke:#000000;stroke-width:0.8;" x="340.914433" xlink:href="#mb09c3fc339" y="307.584"/>
      </g>
     </g>
     <g id="text_6">
      <!-- 1.0 -->
      <defs>
       <path d="M 12.40625 8.296875 
L 28.515625 8.296875 
L 28.515625 63.921875 
L 10.984375 60.40625 
L 10.984375 69.390625 
L 28.421875 72.90625 
L 38.28125 72.90625 
L 38.28125 8.296875 
L 54.390625 8.296875 
L 54.390625 0 
L 12.40625 0 
z
" id="DejaVuSans-49"/>
      </defs>
      <g transform="translate(332.96287 322.182437)scale(0.1 -0.1)">
       <use xlink:href="#DejaVuSans-49"/>
       <use x="63.623047" xlink:href="#DejaVuSans-46"/>
       <use x="95.410156" xlink:href="#DejaVuSans-48"/>
      </g>
     </g>
    </g>
   </g>
   <g id="matplotlib.axis_2">
    <g id="ytick_1">
     <g id="line2d_7">
      <defs>
       <path d="M 0 0 
L -3.5 0 
" id="mca59fdcf5b" style="stroke:#000000;stroke-width:0.8;"/>
      </defs>
      <g>
       <use style="stroke:#000000;stroke-width:0.8;" x="120.930124" xlink:href="#mca59fdcf5b" y="276.909773"/>
      </g>
     </g>
     <g id="text_7">
      <!-- −0.2 -->
      <defs>
       <path d="M 10.59375 35.5 
L 73.1875 35.5 
L 73.1875 27.203125 
L 10.59375 27.203125 
z
" id="DejaVuSans-8722"/>
      </defs>
      <g transform="translate(89.647311 280.708992)scale(0.1 -0.1)">
       <use xlink:href="#DejaVuSans-8722"/>
       <use x="83.789062" xlink:href="#DejaVuSans-48"/>
       <use x="147.412109" xlink:href="#DejaVuSans-46"/>
       <use x="179.199219" xlink:href="#DejaVuSans-50"/>
      </g>
     </g>
    </g>
    <g id="ytick_2">
     <g id="line2d_8">
      <g>
       <use style="stroke:#000000;stroke-width:0.8;" x="120.930124" xlink:href="#mca59fdcf5b" y="235.008"/>
      </g>
     </g>
     <g id="text_8">
      <!-- 0.0 -->
      <g transform="translate(98.026999 238.807219)scale(0.1 -0.1)">
       <use xlink:href="#DejaVuSans-48"/>
       <use x="63.623047" xlink:href="#DejaVuSans-46"/>
       <use x="95.410156" xlink:href="#DejaVuSans-48"/>
      </g>
     </g>
    </g>
    <g id="ytick_3">
     <g id="line2d_9">
      <g>
       <use style="stroke:#000000;stroke-width:0.8;" x="120.930124" xlink:href="#mca59fdcf5b" y="193.106227"/>
      </g>
     </g>
     <g id="text_9">
      <!-- 0.2 -->
      <g transform="translate(98.026999 196.905446)scale(0.1 -0.1)">
       <use xlink:href="#DejaVuSans-48"/>
       <use x="63.623047" xlink:href="#DejaVuSans-46"/>
       <use x="95.410156" xlink:href="#DejaVuSans-50"/>
      </g>
     </g>
    </g>
    <g id="ytick_4">
     <g id="line2d_10">
      <g>
       <use style="stroke:#000000;stroke-width:0.8;" x="120.930124" xlink:href="#mca59fdcf5b" y="151.204454"/>
      </g>
     </g>
     <g id="text_10">
      <!-- 0.4 -->
      <g transform="translate(98.026999 155.003672)scale(0.1 -0.1)">
       <use xlink:href="#DejaVuSans-48"/>
       <use x="63.623047" xlink:href="#DejaVuSans-46"/>
       <use x="95.410156" xlink:href="#DejaVuSans-52"/>
      </g>
     </g>
    </g>
    <g id="ytick_5">
     <g id="line2d_11">
      <g>
       <use style="stroke:#000000;stroke-width:0.8;" x="120.930124" xlink:href="#mca59fdcf5b" y="109.302681"/>
      </g>
     </g>
     <g id="text_11">
      <!-- 0.6 -->
      <g transform="translate(98.026999 113.101899)scale(0.1 -0.1)">
       <use xlink:href="#DejaVuSans-48"/>
       <use x="63.623047" xlink:href="#DejaVuSans-46"/>
       <use x="95.410156" xlink:href="#DejaVuSans-54"/>
      </g>
     </g>
    </g>
    <g id="ytick_6">
     <g id="line2d_12">
      <g>
       <use style="stroke:#000000;stroke-width:0.8;" x="120.930124" xlink:href="#mca59fdcf5b" y="67.400907"/>
      </g>
     </g>
     <g id="text_12">
      <!-- 0.8 -->
      <g transform="translate(98.026999 71.200126)scale(0.1 -0.1)">
       <use xlink:href="#DejaVuSans-48"/>
       <use x="63.623047" xlink:href="#DejaVuSans-46"/>
       <use x="95.410156" xlink:href="#DejaVuSans-56"/>
      </g>
     </g>
    </g>
   </g>
   <g id="line2d_13">
    <path clip-path="url(#pc8cdc73393)" d="M 131.405567 235.008 
L 133.992096 235.008 
L 133.992096 235.008 
L 135.285361 237.248 
L 135.285361 237.248 
L 136.578626 235.008 
L 136.578626 235.008 
L 139.165155 235.008 
L 139.165155 235.008 
L 140.458419 237.248 
L 140.458419 237.248 
L 139.165155 239.488 
L 139.165155 239.488 
L 141.751684 239.488 
L 141.751684 239.488 
L 143.044949 241.728 
L 143.044949 241.728 
L 144.338213 239.488 
L 144.338213 239.488 
L 146.924742 239.488 
L 146.924742 239.488 
L 145.631478 237.248 
L 145.631478 237.248 
L 146.924742 235.008 
L 146.924742 235.008 
L 149.511272 235.008 
L 149.511272 235.008 
L 150.804536 237.248 
L 150.804536 237.248 
L 152.097801 235.008 
L 152.097801 235.008 
L 154.68433 235.008 
L 154.68433 235.008 
L 155.977595 237.248 
L 155.977595 237.248 
L 154.68433 239.488 
L 154.68433 239.488 
L 157.270859 239.488 
L 157.270859 239.488 
L 158.564124 241.728 
L 158.564124 241.728 
L 157.270859 243.968 
L 157.270859 243.968 
L 154.68433 243.968 
L 154.68433 243.968 
L 155.977595 246.208 
L 155.977595 246.208 
L 154.68433 248.448 
L 154.68433 248.448 
L 157.270859 248.448 
L 157.270859 248.448 
L 158.564124 250.688 
L 158.564124 250.688 
L 159.857388 248.448 
L 159.857388 248.448 
L 162.443918 248.448 
L 162.443918 248.448 
L 163.737182 250.688 
L 163.737182 250.688 
L 162.443918 252.928 
L 162.443918 252.928 
L 165.030447 252.928 
L 165.030447 252.928 
L 166.323711 255.168 
L 166.323711 255.168 
L 167.616976 252.928 
L 167.616976 252.928 
L 170.203505 252.928 
L 170.203505 252.928 
L 168.910241 250.688 
L 168.910241 250.688 
L 170.203505 248.448 
L 170.203505 248.448 
L 172.790034 248.448 
L 172.790034 248.448 
L 174.083299 250.688 
L 174.083299 250.688 
L 175.376564 248.448 
L 175.376564 248.448 
L 177.963093 248.448 
L 177.963093 248.448 
L 176.669828 246.208 
L 176.669828 246.208 
L 177.963093 243.968 
L 177.963093 243.968 
L 175.376564 243.968 
L 175.376564 243.968 
L 174.083299 241.728 
L 174.083299 241.728 
L 175.376564 239.488 
L 175.376564 239.488 
L 177.963093 239.488 
L 177.963093 239.488 
L 176.669828 237.248 
L 176.669828 237.248 
L 177.963093 235.008 
L 177.963093 235.008 
L 180.549622 235.008 
L 180.549622 235.008 
L 181.842887 237.248 
L 181.842887 237.248 
L 183.136151 235.008 
L 183.136151 235.008 
L 185.72268 235.008 
L 185.72268 235.008 
L 187.015945 237.248 
L 187.015945 237.248 
L 185.72268 239.488 
L 185.72268 239.488 
L 188.30921 239.488 
L 188.30921 239.488 
L 189.602474 241.728 
L 189.602474 241.728 
L 190.895739 239.488 
L 190.895739 239.488 
L 193.482268 239.488 
L 193.482268 239.488 
L 192.189003 237.248 
L 192.189003 237.248 
L 193.482268 235.008 
L 193.482268 235.008 
L 196.068797 235.008 
L 196.068797 235.008 
L 197.362062 237.248 
L 197.362062 237.248 
L 198.655327 235.008 
L 198.655327 235.008 
L 201.241856 235.008 
L 201.241856 235.008 
L 202.53512 237.248 
L 202.53512 237.248 
L 201.241856 239.488 
L 201.241856 239.488 
L 203.828385 239.488 
L 203.828385 239.488 
L 205.12165 241.728 
L 205.12165 241.728 
L 203.828385 243.968 
L 203.828385 243.968 
L 201.241856 243.968 
L 201.241856 243.968 
L 202.53512 246.208 
L 202.53512 246.208 
L 201.241856 248.448 
L 201.241856 248.448 
L 203.828385 248.448 
L 203.828385 248.448 
L 205.12165 250.688 
L 205.12165 250.688 
L 206.414914 248.448 
L 206.414914 248.448 
L 209.001443 248.448 
L 209.001443 248.448 
L 210.294708 250.688 
L 210.294708 250.688 
L 209.001443 252.928 
L 209.001443 252.928 
L 211.587973 252.928 
L 211.587973 252.928 
L 212.881237 255.168 
L 212.881237 255.168 
L 211.587973 257.408 
L 211.587973 257.408 
L 209.001443 257.408 
L 209.001443 257.408 
L 210.294708 259.648 
L 210.294708 259.648 
L 209.001443 261.888 
L 209.001443 261.888 
L 206.414914 261.888 
L 206.414914 261.888 
L 205.12165 259.648 
L 205.12165 259.648 
L 203.828385 261.888 
L 203.828385 261.888 
L 201.241856 261.888 
L 201.241856 261.888 
L 202.53512 264.128 
L 202.53512 264.128 
L 201.241856 266.368 
L 201.241856 266.368 
L 203.828385 266.368 
L 203.828385 266.368 
L 205.12165 268.608 
L 205.12165 268.608 
L 203.828385 270.848 
L 203.828385 270.848 
L 201.241856 270.848 
L 201.241856 270.848 
L 202.53512 273.088 
L 202.53512 273.088 
L 201.241856 275.328 
L 201.241856 275.328 
L 203.828385 275.328 
L 203.828385 275.328 
L 205.12165 277.568 
L 205.12165 277.568 
L 206.414914 275.328 
L 206.414914 275.328 
L 209.001443 275.328 
L 209.001443 275.328 
L 210.294708 277.568 
L 210.294708 277.568 
L 209.001443 279.808 
L 209.001443 279.808 
L 211.587973 279.808 
L 211.587973 279.808 
L 212.881237 282.048 
L 212.881237 282.048 
L 214.174502 279.808 
L 214.174502 279.808 
L 216.761031 279.808 
L 216.761031 279.808 
L 215.467766 277.568 
L 215.467766 277.568 
L 216.761031 275.328 
L 216.761031 275.328 
L 219.34756 275.328 
L 219.34756 275.328 
L 220.640825 277.568 
L 220.640825 277.568 
L 221.934089 275.328 
L 221.934089 275.328 
L 224.520619 275.328 
L 224.520619 275.328 
L 225.813883 277.568 
L 225.813883 277.568 
L 224.520619 279.808 
L 224.520619 279.808 
L 227.107148 279.808 
L 227.107148 279.808 
L 228.400412 282.048 
L 228.400412 282.048 
L 227.107148 284.288 
L 227.107148 284.288 
L 224.520619 284.288 
L 224.520619 284.288 
L 225.813883 286.528 
L 225.813883 286.528 
L 224.520619 288.768 
L 224.520619 288.768 
L 227.107148 288.768 
L 227.107148 288.768 
L 228.400412 291.008 
L 228.400412 291.008 
L 229.693677 288.768 
L 229.693677 288.768 
L 232.280206 288.768 
L 232.280206 288.768 
L 233.573471 291.008 
L 233.573471 291.008 
L 232.280206 293.248 
L 232.280206 293.248 
L 234.866735 293.248 
L 234.866735 293.248 
L 236.16 295.488 
L 236.16 295.488 
L 237.453265 293.248 
L 237.453265 293.248 
L 240.039794 293.248 
L 240.039794 293.248 
L 238.746529 291.008 
L 238.746529 291.008 
L 240.039794 288.768 
L 240.039794 288.768 
L 242.626323 288.768 
L 242.626323 288.768 
L 243.919588 291.008 
L 243.919588 291.008 
L 245.212852 288.768 
L 245.212852 288.768 
L 247.799381 288.768 
L 247.799381 288.768 
L 246.506117 286.528 
L 246.506117 286.528 
L 247.799381 284.288 
L 247.799381 284.288 
L 245.212852 284.288 
L 245.212852 284.288 
L 243.919588 282.048 
L 243.919588 282.048 
L 245.212852 279.808 
L 245.212852 279.808 
L 247.799381 279.808 
L 247.799381 279.808 
L 246.506117 277.568 
L 246.506117 277.568 
L 247.799381 275.328 
L 247.799381 275.328 
L 250.385911 275.328 
L 250.385911 275.328 
L 251.679175 277.568 
L 251.679175 277.568 
L 252.97244 275.328 
L 252.97244 275.328 
L 255.558969 275.328 
L 255.558969 275.328 
L 256.852234 277.568 
L 256.852234 277.568 
L 255.558969 279.808 
L 255.558969 279.808 
L 258.145498 279.808 
L 258.145498 279.808 
L 259.438763 282.048 
L 259.438763 282.048 
L 260.732027 279.808 
L 260.732027 279.808 
L 263.318557 279.808 
L 263.318557 279.808 
L 262.025292 277.568 
L 262.025292 277.568 
L 263.318557 275.328 
L 263.318557 275.328 
L 265.905086 275.328 
L 265.905086 275.328 
L 267.19835 277.568 
L 267.19835 277.568 
L 268.491615 275.328 
L 268.491615 275.328 
L 271.078144 275.328 
L 271.078144 275.328 
L 269.78488 273.088 
L 269.78488 273.088 
L 271.078144 270.848 
L 271.078144 270.848 
L 268.491615 270.848 
L 268.491615 270.848 
L 267.19835 268.608 
L 267.19835 268.608 
L 268.491615 266.368 
L 268.491615 266.368 
L 271.078144 266.368 
L 271.078144 266.368 
L 269.78488 264.128 
L 269.78488 264.128 
L 271.078144 261.888 
L 271.078144 261.888 
L 268.491615 261.888 
L 268.491615 261.888 
L 267.19835 259.648 
L 267.19835 259.648 
L 265.905086 261.888 
L 265.905086 261.888 
L 263.318557 261.888 
L 263.318557 261.888 
L 262.025292 259.648 
L 262.025292 259.648 
L 263.318557 257.408 
L 263.318557 257.408 
L 260.732027 257.408 
L 260.732027 257.408 
L 259.438763 255.168 
L 259.438763 255.168 
L 260.732027 252.928 
L 260.732027 252.928 
L 263.318557 252.928 
L 263.318557 252.928 
L 262.025292 250.688 
L 262.025292 250.688 
L 263.318557 248.448 
L 263.318557 248.448 
L 265.905086 248.448 
L 265.905086 248.448 
L 267.19835 250.688 
L 267.19835 250.688 
L 268.491615 248.448 
L 268.491615 248.448 
L 271.078144 248.448 
L 271.078144 248.448 
L 269.78488 246.208 
L 269.78488 246.208 
L 271.078144 243.968 
L 271.078144 243.968 
L 268.491615 243.968 
L 268.491615 243.968 
L 267.19835 241.728 
L 267.19835 241.728 
L 268.491615 239.488 
L 268.491615 239.488 
L 271.078144 239.488 
L 271.078144 239.488 
L 269.78488 237.248 
L 269.78488 237.248 
L 271.078144 235.008 
L 271.078144 235.008 
L 273.664673 235.008 
L 273.664673 235.008 
L 274.957938 237.248 
L 274.957938 237.248 
L 276.251203 235.008 
L 276.251203 235.008 
L 278.837732 235.008 
L 278.837732 235.008 
L 280.130997 237.248 
L 280.130997 237.248 
L 278.837732 239.488 
L 278.837732 239.488 
L 281.424261 239.488 
L 281.424261 239.488 
L 282.717526 241.728 
L 282.717526 241.728 
L 284.01079 239.488 
L 284.01079 239.488 
L 286.59732 239.488 
L 286.59732 239.488 
L 285.304055 237.248 
L 285.304055 237.248 
L 286.59732 235.008 
L 286.59732 235.008 
L 289.183849 235.008 
L 289.183849 235.008 
L 290.477113 237.248 
L 290.477113 237.248 
L 291.770378 235.008 
L 291.770378 235.008 
L 294.356907 235.008 
L 294.356907 235.008 
L 295.650172 237.248 
L 295.650172 237.248 
L 294.356907 239.488 
L 294.356907 239.488 
L 296.943436 239.488 
L 296.943436 239.488 
L 298.236701 241.728 
L 298.236701 241.728 
L 296.943436 243.968 
L 296.943436 243.968 
L 294.356907 243.968 
L 294.356907 243.968 
L 295.650172 246.208 
L 295.650172 246.208 
L 294.356907 248.448 
L 294.356907 248.448 
L 296.943436 248.448 
L 296.943436 248.448 
L 298.236701 250.688 
L 298.236701 250.688 
L 299.529966 248.448 
L 299.529966 248.448 
L 302.116495 248.448 
L 302.116495 248.448 
L 303.409759 250.688 
L 303.409759 250.688 
L 302.116495 252.928 
L 302.116495 252.928 
L 304.703024 252.928 
L 304.703024 252.928 
L 305.996289 255.168 
L 305.996289 255.168 
L 307.289553 252.928 
L 307.289553 252.928 
L 309.876082 252.928 
L 309.876082 252.928 
L 308.582818 250.688 
L 308.582818 250.688 
L 309.876082 248.448 
L 309.876082 248.448 
L 312.462612 248.448 
L 312.462612 248.448 
L 313.755876 250.688 
L 313.755876 250.688 
L 315.049141 248.448 
L 315.049141 248.448 
L 317.63567 248.448 
L 317.63567 248.448 
L 316.342405 246.208 
L 316.342405 246.208 
L 317.63567 243.968 
L 317.63567 243.968 
L 315.049141 243.968 
L 315.049141 243.968 
L 313.755876 241.728 
L 313.755876 241.728 
L 315.049141 239.488 
L 315.049141 239.488 
L 317.63567 239.488 
L 317.63567 239.488 
L 316.342405 237.248 
L 316.342405 237.248 
L 317.63567 235.008 
L 317.63567 235.008 
L 320.222199 235.008 
L 320.222199 235.008 
L 321.515464 237.248 
L 321.515464 237.248 
L 322.808728 235.008 
L 322.808728 235.008 
L 325.395258 235.008 
L 325.395258 235.008 
L 326.688522 237.248 
L 326.688522 237.248 
L 325.395258 239.488 
L 325.395258 239.488 
L 327.981787 239.488 
L 327.981787 239.488 
L 329.275051 241.728 
L 329.275051 241.728 
L 330.568316 239.488 
L 330.568316 239.488 
L 333.154845 239.488 
L 333.154845 239.488 
L 331.861581 237.248 
L 331.861581 237.248 
L 333.154845 235.008 
L 333.154845 235.008 
L 335.741374 235.008 
L 335.741374 235.008 
L 337.034639 237.248 
L 337.034639 237.248 
L 338.327904 235.008 
L 338.327904 235.008 
L 340.914433 235.008 
L 340.914433 235.008 
L 339.621168 232.768 
L 339.621168 232.768 
L 340.914433 230.528 
L 340.914433 230.528 
L 338.327904 230.528 
L 338.327904 230.528 
L 337.034639 228.288 
L 337.034639 228.288 
L 338.327904 226.048 
L 338.327904 226.048 
L 340.914433 226.048 
L 340.914433 226.048 
L 339.621168 223.808 
L 339.621168 223.808 
L 340.914433 221.568 
L 340.914433 221.568 
L 338.327904 221.568 
L 338.327904 221.568 
L 337.034639 219.328 
L 337.034639 219.328 
L 335.741374 221.568 
L 335.741374 221.568 
L 333.154845 221.568 
L 333.154845 221.568 
L 331.861581 219.328 
L 331.861581 219.328 
L 333.154845 217.088 
L 333.154845 217.088 
L 330.568316 217.088 
L 330.568316 217.088 
L 329.275051 214.848 
L 329.275051 214.848 
L 330.568316 212.608 
L 330.568316 212.608 
L 333.154845 212.608 
L 333.154845 212.608 
L 331.861581 210.368 
L 331.861581 210.368 
L 333.154845 208.128 
L 333.154845 208.128 
L 335.741374 208.128 
L 335.741374 208.128 
L 337.034639 210.368 
L 337.034639 210.368 
L 338.327904 208.128 
L 338.327904 208.128 
L 340.914433 208.128 
L 340.914433 208.128 
L 339.621168 205.888 
L 339.621168 205.888 
L 340.914433 203.648 
L 340.914433 203.648 
L 338.327904 203.648 
L 338.327904 203.648 
L 337.034639 201.408 
L 337.034639 201.408 
L 338.327904 199.168 
L 338.327904 199.168 
L 340.914433 199.168 
L 340.914433 199.168 
L 339.621168 196.928 
L 339.621168 196.928 
L 340.914433 194.688 
L 340.914433 194.688 
L 338.327904 194.688 
L 338.327904 194.688 
L 337.034639 192.448 
L 337.034639 192.448 
L 335.741374 194.688 
L 335.741374 194.688 
L 333.154845 194.688 
L 333.154845 194.688 
L 331.861581 192.448 
L 331.861581 192.448 
L 333.154845 190.208 
L 333.154845 190.208 
L 330.568316 190.208 
L 330.568316 190.208 
L 329.275051 187.968 
L 329.275051 187.968 
L 327.981787 190.208 
L 327.981787 190.208 
L 325.395258 190.208 
L 325.395258 190.208 
L 326.688522 192.448 
L 326.688522 192.448 
L 325.395258 194.688 
L 325.395258 194.688 
L 322.808728 194.688 
L 322.808728 194.688 
L 321.515464 192.448 
L 321.515464 192.448 
L 320.222199 194.688 
L 320.222199 194.688 
L 317.63567 194.688 
L 317.63567 194.688 
L 316.342405 192.448 
L 316.342405 192.448 
L 317.63567 190.208 
L 317.63567 190.208 
L 315.049141 190.208 
L 315.049141 190.208 
L 313.755876 187.968 
L 313.755876 187.968 
L 315.049141 185.728 
L 315.049141 185.728 
L 317.63567 185.728 
L 317.63567 185.728 
L 316.342405 183.488 
L 316.342405 183.488 
L 317.63567 181.248 
L 317.63567 181.248 
L 315.049141 181.248 
L 315.049141 181.248 
L 313.755876 179.008 
L 313.755876 179.008 
L 312.462612 181.248 
L 312.462612 181.248 
L 309.876082 181.248 
L 309.876082 181.248 
L 308.582818 179.008 
L 308.582818 179.008 
L 309.876082 176.768 
L 309.876082 176.768 
L 307.289553 176.768 
L 307.289553 176.768 
L 305.996289 174.528 
L 305.996289 174.528 
L 307.289553 172.288 
L 307.289553 172.288 
L 309.876082 172.288 
L 309.876082 172.288 
L 308.582818 170.048 
L 308.582818 170.048 
L 309.876082 167.808 
L 309.876082 167.808 
L 312.462612 167.808 
L 312.462612 167.808 
L 313.755876 170.048 
L 313.755876 170.048 
L 315.049141 167.808 
L 315.049141 167.808 
L 317.63567 167.808 
L 317.63567 167.808 
L 316.342405 165.568 
L 316.342405 165.568 
L 317.63567 163.328 
L 317.63567 163.328 
L 315.049141 163.328 
L 315.049141 163.328 
L 313.755876 161.088 
L 313.755876 161.088 
L 315.049141 158.848 
L 315.049141 158.848 
L 317.63567 158.848 
L 317.63567 158.848 
L 316.342405 156.608 
L 316.342405 156.608 
L 317.63567 154.368 
L 317.63567 154.368 
L 320.222199 154.368 
L 320.222199 154.368 
L 321.515464 156.608 
L 321.515464 156.608 
L 322.808728 154.368 
L 322.808728 154.368 
L 325.395258 154.368 
L 325.395258 154.368 
L 326.688522 156.608 
L 326.688522 156.608 
L 325.395258 158.848 
L 325.395258 158.848 
L 327.981787 158.848 
L 327.981787 158.848 
L 329.275051 161.088 
L 329.275051 161.088 
L 330.568316 158.848 
L 330.568316 158.848 
L 333.154845 158.848 
L 333.154845 158.848 
L 331.861581 156.608 
L 331.861581 156.608 
L 333.154845 154.368 
L 333.154845 154.368 
L 335.741374 154.368 
L 335.741374 154.368 
L 337.034639 156.608 
L 337.034639 156.608 
L 338.327904 154.368 
L 338.327904 154.368 
L 340.914433 154.368 
L 340.914433 154.368 
L 339.621168 152.128 
L 339.621168 152.128 
L 340.914433 149.888 
L 340.914433 149.888 
L 338.327904 149.888 
L 338.327904 149.888 
L 337.034639 147.648 
L 337.034639 147.648 
L 338.327904 145.408 
L 338.327904 145.408 
L 340.914433 145.408 
L 340.914433 145.408 
L 339.621168 143.168 
L 339.621168 143.168 
L 340.914433 140.928 
L 340.914433 140.928 
L 338.327904 140.928 
L 338.327904 140.928 
L 337.034639 138.688 
L 337.034639 138.688 
L 335.741374 140.928 
L 335.741374 140.928 
L 333.154845 140.928 
L 333.154845 140.928 
L 331.861581 138.688 
L 331.861581 138.688 
L 333.154845 136.448 
L 333.154845 136.448 
L 330.568316 136.448 
L 330.568316 136.448 
L 329.275051 134.208 
L 329.275051 134.208 
L 330.568316 131.968 
L 330.568316 131.968 
L 333.154845 131.968 
L 333.154845 131.968 
L 331.861581 129.728 
L 331.861581 129.728 
L 333.154845 127.488 
L 333.154845 127.488 
L 335.741374 127.488 
L 335.741374 127.488 
L 337.034639 129.728 
L 337.034639 129.728 
L 338.327904 127.488 
L 338.327904 127.488 
L 340.914433 127.488 
L 340.914433 127.488 
L 339.621168 125.248 
L 339.621168 125.248 
L 340.914433 123.008 
L 340.914433 123.008 
L 338.327904 123.008 
L 338.327904 123.008 
L 337.034639 120.768 
L 337.034639 120.768 
L 338.327904 118.528 
L 338.327904 118.528 
L 340.914433 118.528 
L 340.914433 118.528 
L 339.621168 116.288 
L 339.621168 116.288 
L 340.914433 114.048 
L 340.914433 114.048 
L 338.327904 114.048 
L 338.327904 114.048 
L 337.034639 111.808 
L 337.034639 111.808 
L 335.741374 114.048 
L 335.741374 114.048 
L 333.154845 114.048 
L 333.154845 114.048 
L 331.861581 111.808 
L 331.861581 111.808 
L 333.154845 109.568 
L 333.154845 109.568 
L 330.568316 109.568 
L 330.568316 109.568 
L 329.275051 107.328 
L 329.275051 107.328 
L 327.981787 109.568 
L 327.981787 109.568 
L 325.395258 109.568 
L 325.395258 109.568 
L 326.688522 111.808 
L 326.688522 111.808 
L 325.395258 114.048 
L 325.395258 114.048 
L 322.808728 114.048 
L 322.808728 114.048 
L 321.515464 111.808 
L 321.515464 111.808 
L 320.222199 114.048 
L 320.222199 114.048 
L 317.63567 114.048 
L 317.63567 114.048 
L 316.342405 111.808 
L 316.342405 111.808 
L 317.63567 109.568 
L 317.63567 109.568 
L 315.049141 109.568 
L 315.049141 109.568 
L 313.755876 107.328 
L 313.755876 107.328 
L 315.049141 105.088 
L 315.049141 105.088 
L 317.63567 105.088 
L 317.63567 105.088 
L 316.342405 102.848 
L 316.342405 102.848 
L 317.63567 100.608 
L 317.63567 100.608 
L 315.049141 100.608 
L 315.049141 100.608 
L 313.755876 98.368 
L 313.755876 98.368 
L 312.462612 100.608 
L 312.462612 100.608 
L 309.876082 100.608 
L 309.876082 100.608 
L 308.582818 98.368 
L 308.582818 98.368 
L 309.876082 96.128 
L 309.876082 96.128 
L 307.289553 96.128 
L 307.289553 96.128 
L 305.996289 93.888 
L 305.996289 93.888 
L 304.703024 96.128 
L 304.703024 96.128 
L 302.116495 96.128 
L 302.116495 96.128 
L 303.409759 98.368 
L 303.409759 98.368 
L 302.116495 100.608 
L 302.116495 100.608 
L 299.529966 100.608 
L 299.529966 100.608 
L 298.236701 98.368 
L 298.236701 98.368 
L 296.943436 100.608 
L 296.943436 100.608 
L 294.356907 100.608 
L 294.356907 100.608 
L 295.650172 102.848 
L 295.650172 102.848 
L 294.356907 105.088 
L 294.356907 105.088 
L 296.943436 105.088 
L 296.943436 105.088 
L 298.236701 107.328 
L 298.236701 107.328 
L 296.943436 109.568 
L 296.943436 109.568 
L 294.356907 109.568 
L 294.356907 109.568 
L 295.650172 111.808 
L 295.650172 111.808 
L 294.356907 114.048 
L 294.356907 114.048 
L 291.770378 114.048 
L 291.770378 114.048 
L 290.477113 111.808 
L 290.477113 111.808 
L 289.183849 114.048 
L 289.183849 114.048 
L 286.59732 114.048 
L 286.59732 114.048 
L 285.304055 111.808 
L 285.304055 111.808 
L 286.59732 109.568 
L 286.59732 109.568 
L 284.01079 109.568 
L 284.01079 109.568 
L 282.717526 107.328 
L 282.717526 107.328 
L 281.424261 109.568 
L 281.424261 109.568 
L 278.837732 109.568 
L 278.837732 109.568 
L 280.130997 111.808 
L 280.130997 111.808 
L 278.837732 114.048 
L 278.837732 114.048 
L 276.251203 114.048 
L 276.251203 114.048 
L 274.957938 111.808 
L 274.957938 111.808 
L 273.664673 114.048 
L 273.664673 114.048 
L 271.078144 114.048 
L 271.078144 114.048 
L 269.78488 111.808 
L 269.78488 111.808 
L 271.078144 109.568 
L 271.078144 109.568 
L 268.491615 109.568 
L 268.491615 109.568 
L 267.19835 107.328 
L 267.19835 107.328 
L 268.491615 105.088 
L 268.491615 105.088 
L 271.078144 105.088 
L 271.078144 105.088 
L 269.78488 102.848 
L 269.78488 102.848 
L 271.078144 100.608 
L 271.078144 100.608 
L 268.491615 100.608 
L 268.491615 100.608 
L 267.19835 98.368 
L 267.19835 98.368 
L 265.905086 100.608 
L 265.905086 100.608 
L 263.318557 100.608 
L 263.318557 100.608 
L 262.025292 98.368 
L 262.025292 98.368 
L 263.318557 96.128 
L 263.318557 96.128 
L 260.732027 96.128 
L 260.732027 96.128 
L 259.438763 93.888 
L 259.438763 93.888 
L 260.732027 91.648 
L 260.732027 91.648 
L 263.318557 91.648 
L 263.318557 91.648 
L 262.025292 89.408 
L 262.025292 89.408 
L 263.318557 87.168 
L 263.318557 87.168 
L 265.905086 87.168 
L 265.905086 87.168 
L 267.19835 89.408 
L 267.19835 89.408 
L 268.491615 87.168 
L 268.491615 87.168 
L 271.078144 87.168 
L 271.078144 87.168 
L 269.78488 84.928 
L 269.78488 84.928 
L 271.078144 82.688 
L 271.078144 82.688 
L 268.491615 82.688 
L 268.491615 82.688 
L 267.19835 80.448 
L 267.19835 80.448 
L 268.491615 78.208 
L 268.491615 78.208 
L 271.078144 78.208 
L 271.078144 78.208 
L 269.78488 75.968 
L 269.78488 75.968 
L 271.078144 73.728 
L 271.078144 73.728 
L 268.491615 73.728 
L 268.491615 73.728 
L 267.19835 71.488 
L 267.19835 71.488 
L 265.905086 73.728 
L 265.905086 73.728 
L 263.318557 73.728 
L 263.318557 73.728 
L 262.025292 71.488 
L 262.025292 71.488 
L 263.318557 69.248 
L 263.318557 69.248 
L 260.732027 69.248 
L 260.732027 69.248 
L 259.438763 67.008 
L 259.438763 67.008 
L 258.145498 69.248 
L 258.145498 69.248 
L 255.558969 69.248 
L 255.558969 69.248 
L 256.852234 71.488 
L 256.852234 71.488 
L 255.558969 73.728 
L 255.558969 73.728 
L 252.97244 73.728 
L 252.97244 73.728 
L 251.679175 71.488 
L 251.679175 71.488 
L 250.385911 73.728 
L 250.385911 73.728 
L 247.799381 73.728 
L 247.799381 73.728 
L 246.506117 71.488 
L 246.506117 71.488 
L 247.799381 69.248 
L 247.799381 69.248 
L 245.212852 69.248 
L 245.212852 69.248 
L 243.919588 67.008 
L 243.919588 67.008 
L 245.212852 64.768 
L 245.212852 64.768 
L 247.799381 64.768 
L 247.799381 64.768 
L 246.506117 62.528 
L 246.506117 62.528 
L 247.799381 60.288 
L 247.799381 60.288 
L 245.212852 60.288 
L 245.212852 60.288 
L 243.919588 58.048 
L 243.919588 58.048 
L 242.626323 60.288 
L 242.626323 60.288 
L 240.039794 60.288 
L 240.039794 60.288 
L 238.746529 58.048 
L 238.746529 58.048 
L 240.039794 55.808 
L 240.039794 55.808 
L 237.453265 55.808 
L 237.453265 55.808 
L 236.16 53.568 
L 236.16 53.568 
L 234.866735 55.808 
L 234.866735 55.808 
L 232.280206 55.808 
L 232.280206 55.808 
L 233.573471 58.048 
L 233.573471 58.048 
L 232.280206 60.288 
L 232.280206 60.288 
L 229.693677 60.288 
L 229.693677 60.288 
L 228.400412 58.048 
L 228.400412 58.048 
L 227.107148 60.288 
L 227.107148 60.288 
L 224.520619 60.288 
L 224.520619 60.288 
L 225.813883 62.528 
L 225.813883 62.528 
L 224.520619 64.768 
L 224.520619 64.768 
L 227.107148 64.768 
L 227.107148 64.768 
L 228.400412 67.008 
L 228.400412 67.008 
L 227.107148 69.248 
L 227.107148 69.248 
L 224.520619 69.248 
L 224.520619 69.248 
L 225.813883 71.488 
L 225.813883 71.488 
L 224.520619 73.728 
L 224.520619 73.728 
L 221.934089 73.728 
L 221.934089 73.728 
L 220.640825 71.488 
L 220.640825 71.488 
L 219.34756 73.728 
L 219.34756 73.728 
L 216.761031 73.728 
L 216.761031 73.728 
L 215.467766 71.488 
L 215.467766 71.488 
L 216.761031 69.248 
L 216.761031 69.248 
L 214.174502 69.248 
L 214.174502 69.248 
L 212.881237 67.008 
L 212.881237 67.008 
L 211.587973 69.248 
L 211.587973 69.248 
L 209.001443 69.248 
L 209.001443 69.248 
L 210.294708 71.488 
L 210.294708 71.488 
L 209.001443 73.728 
L 209.001443 73.728 
L 206.414914 73.728 
L 206.414914 73.728 
L 205.12165 71.488 
L 205.12165 71.488 
L 203.828385 73.728 
L 203.828385 73.728 
L 201.241856 73.728 
L 201.241856 73.728 
L 202.53512 75.968 
L 202.53512 75.968 
L 201.241856 78.208 
L 201.241856 78.208 
L 203.828385 78.208 
L 203.828385 78.208 
L 205.12165 80.448 
L 205.12165 80.448 
L 203.828385 82.688 
L 203.828385 82.688 
L 201.241856 82.688 
L 201.241856 82.688 
L 202.53512 84.928 
L 202.53512 84.928 
L 201.241856 87.168 
L 201.241856 87.168 
L 203.828385 87.168 
L 203.828385 87.168 
L 205.12165 89.408 
L 205.12165 89.408 
L 206.414914 87.168 
L 206.414914 87.168 
L 209.001443 87.168 
L 209.001443 87.168 
L 210.294708 89.408 
L 210.294708 89.408 
L 209.001443 91.648 
L 209.001443 91.648 
L 211.587973 91.648 
L 211.587973 91.648 
L 212.881237 93.888 
L 212.881237 93.888 
L 211.587973 96.128 
L 211.587973 96.128 
L 209.001443 96.128 
L 209.001443 96.128 
L 210.294708 98.368 
L 210.294708 98.368 
L 209.001443 100.608 
L 209.001443 100.608 
L 206.414914 100.608 
L 206.414914 100.608 
L 205.12165 98.368 
L 205.12165 98.368 
L 203.828385 100.608 
L 203.828385 100.608 
L 201.241856 100.608 
L 201.241856 100.608 
L 202.53512 102.848 
L 202.53512 102.848 
L 201.241856 105.088 
L 201.241856 105.088 
L 203.828385 105.088 
L 203.828385 105.088 
L 205.12165 107.328 
L 205.12165 107.328 
L 203.828385 109.568 
L 203.828385 109.568 
L 201.241856 109.568 
L 201.241856 109.568 
L 202.53512 111.808 
L 202.53512 111.808 
L 201.241856 114.048 
L 201.241856 114.048 
L 198.655327 114.048 
L 198.655327 114.048 
L 197.362062 111.808 
L 197.362062 111.808 
L 196.068797 114.048 
L 196.068797 114.048 
L 193.482268 114.048 
L 193.482268 114.048 
L 192.189003 111.808 
L 192.189003 111.808 
L 193.482268 109.568 
L 193.482268 109.568 
L 190.895739 109.568 
L 190.895739 109.568 
L 189.602474 107.328 
L 189.602474 107.328 
L 188.30921 109.568 
L 188.30921 109.568 
L 185.72268 109.568 
L 185.72268 109.568 
L 187.015945 111.808 
L 187.015945 111.808 
L 185.72268 114.048 
L 185.72268 114.048 
L 183.136151 114.048 
L 183.136151 114.048 
L 181.842887 111.808 
L 181.842887 111.808 
L 180.549622 114.048 
L 180.549622 114.048 
L 177.963093 114.048 
L 177.963093 114.048 
L 176.669828 111.808 
L 176.669828 111.808 
L 177.963093 109.568 
L 177.963093 109.568 
L 175.376564 109.568 
L 175.376564 109.568 
L 174.083299 107.328 
L 174.083299 107.328 
L 175.376564 105.088 
L 175.376564 105.088 
L 177.963093 105.088 
L 177.963093 105.088 
L 176.669828 102.848 
L 176.669828 102.848 
L 177.963093 100.608 
L 177.963093 100.608 
L 175.376564 100.608 
L 175.376564 100.608 
L 174.083299 98.368 
L 174.083299 98.368 
L 172.790034 100.608 
L 172.790034 100.608 
L 170.203505 100.608 
L 170.203505 100.608 
L 168.910241 98.368 
L 168.910241 98.368 
L 170.203505 96.128 
L 170.203505 96.128 
L 167.616976 96.128 
L 167.616976 96.128 
L 166.323711 93.888 
L 166.323711 93.888 
L 165.030447 96.128 
L 165.030447 96.128 
L 162.443918 96.128 
L 162.443918 96.128 
L 163.737182 98.368 
L 163.737182 98.368 
L 162.443918 100.608 
L 162.443918 100.608 
L 159.857388 100.608 
L 159.857388 100.608 
L 158.564124 98.368 
L 158.564124 98.368 
L 157.270859 100.608 
L 157.270859 100.608 
L 154.68433 100.608 
L 154.68433 100.608 
L 155.977595 102.848 
L 155.977595 102.848 
L 154.68433 105.088 
L 154.68433 105.088 
L 157.270859 105.088 
L 157.270859 105.088 
L 158.564124 107.328 
L 158.564124 107.328 
L 157.270859 109.568 
L 157.270859 109.568 
L 154.68433 109.568 
L 154.68433 109.568 
L 155.977595 111.808 
L 155.977595 111.808 
L 154.68433 114.048 
L 154.68433 114.048 
L 152.097801 114.048 
L 152.097801 114.048 
L 150.804536 111.808 
L 150.804536 111.808 
L 149.511272 114.048 
L 149.511272 114.048 
L 146.924742 114.048 
L 146.924742 114.048 
L 145.631478 111.808 
L 145.631478 111.808 
L 146.924742 109.568 
L 146.924742 109.568 
L 144.338213 109.568 
L 144.338213 109.568 
L 143.044949 107.328 
L 143.044949 107.328 
L 141.751684 109.568 
L 141.751684 109.568 
L 139.165155 109.568 
L 139.165155 109.568 
L 140.458419 111.808 
L 140.458419 111.808 
L 139.165155 114.048 
L 139.165155 114.048 
L 136.578626 114.048 
L 136.578626 114.048 
L 135.285361 111.808 
L 135.285361 111.808 
L 133.992096 114.048 
L 133.992096 114.048 
L 131.405567 114.048 
L 131.405567 114.048 
L 132.698832 116.288 
L 132.698832 116.288 
L 131.405567 118.528 
L 131.405567 118.528 
L 133.992096 118.528 
L 133.992096 118.528 
L 135.285361 120.768 
L 135.285361 120.768 
L 133.992096 123.008 
L 133.992096 123.008 
L 131.405567 123.008 
L 131.405567 123.008 
L 132.698832 125.248 
L 132.698832 125.248 
L 131.405567 127.488 
L 131.405567 127.488 
L 133.992096 127.488 
L 133.992096 127.488 
L 135.285361 129.728 
L 135.285361 129.728 
L 136.578626 127.488 
L 136.578626 127.488 
L 139.165155 127.488 
L 139.165155 127.488 
L 140.458419 129.728 
L 140.458419 129.728 
L 139.165155 131.968 
L 139.165155 131.968 
L 141.751684 131.968 
L 141.751684 131.968 
L 143.044949 134.208 
L 143.044949 134.208 
L 141.751684 136.448 
L 141.751684 136.448 
L 139.165155 136.448 
L 139.165155 136.448 
L 140.458419 138.688 
L 140.458419 138.688 
L 139.165155 140.928 
L 139.165155 140.928 
L 136.578626 140.928 
L 136.578626 140.928 
L 135.285361 138.688 
L 135.285361 138.688 
L 133.992096 140.928 
L 133.992096 140.928 
L 131.405567 140.928 
L 131.405567 140.928 
L 132.698832 143.168 
L 132.698832 143.168 
L 131.405567 145.408 
L 131.405567 145.408 
L 133.992096 145.408 
L 133.992096 145.408 
L 135.285361 147.648 
L 135.285361 147.648 
L 133.992096 149.888 
L 133.992096 149.888 
L 131.405567 149.888 
L 131.405567 149.888 
L 132.698832 152.128 
L 132.698832 152.128 
L 131.405567 154.368 
L 131.405567 154.368 
L 133.992096 154.368 
L 133.992096 154.368 
L 135.285361 156.608 
L 135.285361 156.608 
L 136.578626 154.368 
L 136.578626 154.368 
L 139.165155 154.368 
L 139.165155 154.368 
L 140.458419 156.608 
L 140.458419 156.608 
L 139.165155 158.848 
L 139.165155 158.848 
L 141.751684 158.848 
L 141.751684 158.848 
L 143.044949 161.088 
L 143.044949 161.088 
L 144.338213 158.848 
L 144.338213 158.848 
L 146.924742 158.848 
L 146.924742 158.848 
L 145.631478 156.608 
L 145.631478 156.608 
L 146.924742 154.368 
L 146.924742 154.368 
L 149.511272 154.368 
L 149.511272 154.368 
L 150.804536 156.608 
L 150.804536 156.608 
L 152.097801 154.368 
L 152.097801 154.368 
L 154.68433 154.368 
L 154.68433 154.368 
L 155.977595 156.608 
L 155.977595 156.608 
L 154.68433 158.848 
L 154.68433 158.848 
L 157.270859 158.848 
L 157.270859 158.848 
L 158.564124 161.088 
L 158.564124 161.088 
L 157.270859 163.328 
L 157.270859 163.328 
L 154.68433 163.328 
L 154.68433 163.328 
L 155.977595 165.568 
L 155.977595 165.568 
L 154.68433 167.808 
L 154.68433 167.808 
L 157.270859 167.808 
L 157.270859 167.808 
L 158.564124 170.048 
L 158.564124 170.048 
L 159.857388 167.808 
L 159.857388 167.808 
L 162.443918 167.808 
L 162.443918 167.808 
L 163.737182 170.048 
L 163.737182 170.048 
L 162.443918 172.288 
L 162.443918 172.288 
L 165.030447 172.288 
L 165.030447 172.288 
L 166.323711 174.528 
L 166.323711 174.528 
L 165.030447 176.768 
L 165.030447 176.768 
L 162.443918 176.768 
L 162.443918 176.768 
L 163.737182 179.008 
L 163.737182 179.008 
L 162.443918 181.248 
L 162.443918 181.248 
L 159.857388 181.248 
L 159.857388 181.248 
L 158.564124 179.008 
L 158.564124 179.008 
L 157.270859 181.248 
L 157.270859 181.248 
L 154.68433 181.248 
L 154.68433 181.248 
L 155.977595 183.488 
L 155.977595 183.488 
L 154.68433 185.728 
L 154.68433 185.728 
L 157.270859 185.728 
L 157.270859 185.728 
L 158.564124 187.968 
L 158.564124 187.968 
L 157.270859 190.208 
L 157.270859 190.208 
L 154.68433 190.208 
L 154.68433 190.208 
L 155.977595 192.448 
L 155.977595 192.448 
L 154.68433 194.688 
L 154.68433 194.688 
L 152.097801 194.688 
L 152.097801 194.688 
L 150.804536 192.448 
L 150.804536 192.448 
L 149.511272 194.688 
L 149.511272 194.688 
L 146.924742 194.688 
L 146.924742 194.688 
L 145.631478 192.448 
L 145.631478 192.448 
L 146.924742 190.208 
L 146.924742 190.208 
L 144.338213 190.208 
L 144.338213 190.208 
L 143.044949 187.968 
L 143.044949 187.968 
L 141.751684 190.208 
L 141.751684 190.208 
L 139.165155 190.208 
L 139.165155 190.208 
L 140.458419 192.448 
L 140.458419 192.448 
L 139.165155 194.688 
L 139.165155 194.688 
L 136.578626 194.688 
L 136.578626 194.688 
L 135.285361 192.448 
L 135.285361 192.448 
L 133.992096 194.688 
L 133.992096 194.688 
L 131.405567 194.688 
L 131.405567 194.688 
L 132.698832 196.928 
L 132.698832 196.928 
L 131.405567 199.168 
L 131.405567 199.168 
L 133.992096 199.168 
L 133.992096 199.168 
L 135.285361 201.408 
L 135.285361 201.408 
L 133.992096 203.648 
L 133.992096 203.648 
L 131.405567 203.648 
L 131.405567 203.648 
L 132.698832 205.888 
L 132.698832 205.888 
L 131.405567 208.128 
L 131.405567 208.128 
L 133.992096 208.128 
L 133.992096 208.128 
L 135.285361 210.368 
L 135.285361 210.368 
L 136.578626 208.128 
L 136.578626 208.128 
L 139.165155 208.128 
L 139.165155 208.128 
L 140.458419 210.368 
L 140.458419 210.368 
L 139.165155 212.608 
L 139.165155 212.608 
L 141.751684 212.608 
L 141.751684 212.608 
L 143.044949 214.848 
L 143.044949 214.848 
L 141.751684 217.088 
L 141.751684 217.088 
L 139.165155 217.088 
L 139.165155 217.088 
L 140.458419 219.328 
L 140.458419 219.328 
L 139.165155 221.568 
L 139.165155 221.568 
L 136.578626 221.568 
L 136.578626 221.568 
L 135.285361 219.328 
L 135.285361 219.328 
L 133.992096 221.568 
L 133.992096 221.568 
L 131.405567 221.568 
L 131.405567 221.568 
L 132.698832 223.808 
L 132.698832 223.808 
L 131.405567 226.048 
L 131.405567 226.048 
L 133.992096 226.048 
L 133.992096 226.048 
L 135.285361 228.288 
L 135.285361 228.288 
L 133.992096 230.528 
L 133.992096 230.528 
L 131.405567 230.528 
L 131.405567 230.528 
L 132.698832 232.768 
L 132.698832 232.768 
L 131.405567 235.008 
L 131.405567 235.008 
" style="fill:none;stroke:#1f77b4;stroke-linecap:square;stroke-width:1.5;"/>
   </g>
   <g id="patch_3">
    <path d="M 120.930124 307.584 
L 120.930124 41.472 
" style="fill:none;stroke:#000000;stroke-linecap:square;stroke-linejoin:miter;stroke-width:0.8;"/>
   </g>
   <g id="patch_4">
    <path d="M 351.389876 307.584 
L 351.389876 41.472 
" style="fill:none;stroke:#000000;stroke-linecap:square;stroke-linejoin:miter;stroke-width:0.8;"/>
   </g>
   <g id="patch_5">
    <path d="M 120.930124 307.584 
L 351.389876 307.584 
" style="fill:none;stroke:#000000;stroke-linecap:square;stroke-linejoin:miter;stroke-width:0.8;"/>
   </g>
   <g id="patch_6">
    <path d="M 120.930124 41.472 
L 351.389876 41.472 
" style="fill:none;stroke:#000000;stroke-linecap:square;stroke-linejoin:miter;stroke-width:0.8;"/>
   </g>
  </g>
 </g>
 <defs>
  <clipPath id="pc8cdc73393">
   <rect height="266.112" width="230.459752" x="120.930124" y="41.472"/>
  </clipPath>
 </defs>
</svg>
